<svg width="259" height="259" viewBox="0 0 259 259" fill="none" xmlns="http://www.w3.org/2000/svg">
<rect width="259" height="259" fill="#FE2C54"/>
<path d="M124.881 143.003C126.492 140.895 128.475 139.168 130.832 137.824C134.064 136 137.793 135.089 142.017 135.089C148.256 135.089 152.944 136.929 156.08 140.608C159.216 144.256 160.784 149.344 160.784 155.872V187.024H145.904V160.049C145.904 156.145 145.2 153.136 143.792 151.024C142.384 148.881 139.808 147.809 136.064 147.809C133.632 147.809 131.584 148.305 129.92 149.297C128.256 150.257 126.992 151.616 126.128 153.376C125.296 155.136 124.881 157.2 124.881 159.568V187.024H110V112H124.881V143.003ZM186.13 187.024H171.13V172.024H186.13V187.024Z" fill="white"/>
<path d="M205 205H55V55H205V205ZM62 62V198H198V62H62Z" fill="white"/>
</svg>
