<svg width="150" height="150" viewBox="0 0 150 150" fill="none" xmlns="http://www.w3.org/2000/svg">
<path d="M69.8809 88.0029C71.4915 85.8949 73.4745 84.168 75.832 82.8242C79.064 81.0002 82.7926 80.0889 87.0166 80.0889C93.2564 80.0889 97.9441 81.9285 101.08 85.6084C104.216 89.2563 105.784 94.3442 105.784 100.872V132.024H90.9043V105.049C90.9043 101.145 90.2 98.1364 88.792 96.0244C87.384 93.8805 84.8083 92.8086 81.0645 92.8086C78.6325 92.8086 76.5839 93.3049 74.9199 94.2969C73.2562 95.2568 71.9918 96.6162 71.1279 98.376C70.2959 100.136 69.8809 102.2 69.8809 104.568V132.024H55V57H69.8809V88.0029ZM131.13 132.024H116.13V117.024H131.13V132.024Z" fill="currentcolor"/>
<path d="M150 150H0V0H150V150ZM7 7V143H143V7H7Z" fill="currentcolor"/>
</svg>
