<svg width="112" height="119" viewBox="0 0 112 119" fill="none" xmlns="http://www.w3.org/2000/svg">
<path fill-rule="evenodd" clip-rule="evenodd" d="M48.3649 118.12C37.8588 116.514 19.0991 115.998 8.02596 117.01C3.58294 117.417 4.01119 120.613 4.01119 87.0597V58.0167L4.91355 57.2881C5.57427 56.7547 6.42082 56.559 8.06802 56.559H10.3201V53.5815C10.3201 49.0307 10.1205 49.1501 17.996 48.9888C33.2613 48.6761 44.2045 51.9095 52.7735 59.2643C54.2166 60.5028 55.546 61.5159 55.7288 61.5159C55.9112 61.5159 56.5658 60.9859 57.1833 60.3388C62.1463 55.1368 71.5654 50.9323 81.5163 49.4769C86.747 48.712 98.5497 48.8233 99.5434 49.6469C100.038 50.0572 100.175 50.861 100.175 53.3645V56.559H102.588C105.2 56.559 106.458 57.2618 106.874 58.9528C106.988 59.4188 107.033 72.3638 106.974 87.7197C106.845 121.031 107.578 117.518 100.911 116.784C92.2617 115.831 70.1396 116.763 60.2636 118.496C56.0832 119.229 55.4975 119.211 48.3649 118.12ZM69.9683 113.919C76.7525 113.197 96.5576 112.92 101.417 113.478L103.998 113.775V60.0799L103.138 59.8496C102.665 59.7234 101.804 59.6174 101.226 59.6148L100.175 59.6094V83.7455C100.175 102.01 100.063 107.993 99.7159 108.339C99.4 108.654 97.4645 108.798 93.5025 108.8C84.3423 108.805 75.2135 110.167 68.43 112.539C63.9954 114.089 63.0858 114.46 63.0858 114.72C63.0858 114.842 63.215 114.863 63.3726 114.766C63.5301 114.669 66.4983 114.288 69.9683 113.919ZM47.0267 114.357C47.0267 114.073 38.9027 111.505 35.4278 110.689C30.2709 109.479 23.765 108.797 17.3892 108.797C13.4119 108.797 11.4779 108.654 11.1613 108.339C10.8141 107.993 10.7025 101.998 10.7025 83.6951V59.5091L9.14131 59.7177C8.28291 59.8325 7.49372 60.0128 7.38781 60.1185C7.14424 60.3617 7.12092 113.36 7.36448 113.602C7.46351 113.701 9.93241 113.581 12.8513 113.335C18.9446 112.822 33.0281 113.114 40.5266 113.909C46.2023 114.51 47.0267 114.567 47.0267 114.357ZM52.0956 62.9355C47.0286 57.7739 38.7543 54.1264 29.0558 52.7804C26.3486 52.4044 20.2229 52.1879 15.7688 52.3099L13.7614 52.3648V105.365L17.2982 105.369C21.8617 105.375 30.2445 106.266 34.9529 107.246C39.5928 108.212 47.0947 110.713 50.8503 112.545L53.718 113.944L53.8162 89.3665L53.9149 64.7889L52.0956 62.9355ZM58.3166 113.254C60.241 111.978 65.5019 109.92 70.5418 108.47C76.7643 106.681 86.3715 105.377 93.3878 105.369L97.1158 105.365V52.3648L95.4908 52.2969C86.2312 51.9111 78.9694 52.7789 72.3771 55.0586C66.9878 56.9224 62.3329 59.68 59.0607 62.948L57.1386 64.8679L57.0629 89.3105C57.0212 102.754 57.1164 113.753 57.2751 113.753C57.433 113.753 57.9021 113.529 58.3166 113.254ZM43.5854 99.3954C41.2653 97.704 34.7284 94.7909 31.3499 93.9425C29.5624 93.4933 26.5513 93.0255 24.6586 92.9027C20.8958 92.6587 20.2615 92.3856 20.2615 91.0115C20.2615 89.4844 21.5653 89.182 25.8768 89.7089C33.508 90.6416 39.2766 92.6831 45.0177 96.4834C46.6443 97.5602 47.0267 98.0162 47.0267 98.8791C47.0267 100.657 45.6081 100.869 43.5854 99.3954ZM64.3285 100.156C64.0654 100.05 63.8505 99.4873 63.8505 98.9051C63.8505 98.0494 64.2413 97.5884 65.8942 96.4937C70.9226 93.1642 77.253 90.8021 83.542 89.908C89.0235 89.1286 89.7141 89.1694 90.4662 90.3137C91.0588 91.2154 91.0554 91.3241 90.4157 92.0295C89.8865 92.6121 89.2373 92.7822 87.5396 92.7822C81.5928 92.7822 72.5974 95.7105 67.0856 99.4404C65.6575 100.407 65.2289 100.518 64.3285 100.156ZM41.6736 83.588C37.1733 81.2876 33.5531 80.3287 26.1881 79.4852L20.4527 78.829V76.1958L22.7468 76.0738C29.6595 75.707 40.2539 78.4134 45.425 81.8668C47.3949 83.1823 47.7639 83.9853 46.8275 84.9195C45.9901 85.7545 45.8341 85.7145 41.6736 83.588ZM64.3093 85.08C63.0613 83.8355 64.2229 82.4773 68.2476 80.4751C71.1826 79.0147 74.8816 77.7831 78.8405 76.9462C81.9725 76.2843 88.2604 75.8115 89.5711 76.1394C90.7036 76.4231 91.1426 77.3111 90.6256 78.2746C90.3316 78.8222 89.5665 79.0189 86.8988 79.234C79.3911 79.8391 73.3938 81.4009 68.5271 84.0189C65.4748 85.6607 65.0094 85.7778 64.3093 85.08ZM41.9872 70.6567C37.2708 68.2519 29.7727 66.4956 24.1554 66.4796C21.3306 66.4716 20.2615 66.016 20.2615 64.8198C20.2615 62.8676 22.0135 62.6304 29.2714 63.5997C34.6023 64.3112 39.5466 65.751 43.2597 67.6727C46.8691 69.541 47.6354 70.2952 47.0439 71.398C46.4367 72.5289 45.3454 72.3687 41.9872 70.6567ZM64.3093 71.7346C63.0724 70.5011 64.2849 69.3534 69.2035 67.1026C74.2251 64.8046 82.1044 63.0674 87.5931 63.0483C89.7202 63.0411 90.9981 63.7259 90.9981 64.8736C90.9981 65.7456 89.2507 66.3969 86.7974 66.4384C81.2288 66.533 73.0719 68.5215 68.6445 70.8638C65.9672 72.2803 65.0427 72.466 64.3093 71.7346ZM48.5446 49.4917C48.173 49.0448 48.0491 45.8221 48.0204 35.8604L47.9826 22.8143L45.1321 22.7007C40.6481 22.5219 40.2356 21.5473 43.0926 17.8811C44.0833 16.6099 44.9902 15.4839 45.1076 15.3791C45.225 15.2742 47.2546 12.7618 49.6175 9.79573C53.8606 4.46979 55.0627 3.47804 56.3803 4.21508C56.8946 4.50296 57.9534 5.76886 65.8514 15.5407C70.7865 21.6472 70.7739 22.5001 65.7451 22.7007L62.8946 22.8143L62.794 36.0217C62.6839 50.4995 62.6518 50.6974 60.5756 49.7537L59.6178 49.3186L59.7267 35.1744L59.8357 21.0306L60.7381 20.302C61.2352 19.9012 62.2243 19.5733 62.9367 19.5733C63.6498 19.5733 64.2329 19.47 64.2329 19.3434C64.2329 19.033 55.6806 8.16226 55.4386 8.16493C55.3334 8.16607 53.2339 10.6906 50.773 13.7749L46.299 19.3827L47.9891 19.4986C49.2688 19.5863 49.8688 19.8532 50.4564 20.5982C51.204 21.5465 51.2326 22.091 51.2326 35.3723C51.2326 45.5892 51.1141 49.2805 50.7738 49.6195C50.141 50.2505 49.1281 50.1922 48.5446 49.4917ZM79.281 46.3594C78.532 44.5429 77.0557 42.9658 75.2257 42.0271C73.1258 40.9499 73.2933 39.8945 75.7939 38.4475C77.3857 37.5263 77.9986 36.8594 78.9434 35.0196C80.5359 31.9193 81.0999 31.9105 82.5617 34.9643C83.5294 36.9867 84.0903 37.6479 85.6504 38.6053C86.8013 39.3111 87.5568 40.0482 87.5568 40.4638C87.5568 40.8733 86.7431 41.6862 85.5494 42.4694C84.1301 43.3998 83.227 44.3721 82.4665 45.7874C81.1293 48.275 80.144 48.4519 79.281 46.3594ZM29.6775 42.9277C29.4633 42.16 29.2568 41.3901 29.058 40.6182C28.4681 38.343 26.3865 36.1593 24.079 35.3952C21.2143 34.4462 21.1057 32.2099 23.8878 31.4438C26.692 30.6717 28.7426 28.3984 29.2645 25.4834C29.601 23.604 30.0522 23.005 31.1289 23.005C32.2645 23.005 32.8794 23.7081 32.8794 25.0068C32.8794 27.502 35.0638 30.1886 38.0886 31.4126C39.9094 32.1496 40.1442 32.3708 40.1442 33.3492C40.1442 34.3207 39.8918 34.5647 38.0477 35.378C35.0175 36.7145 32.8794 39.1697 32.8794 41.3133C32.8794 41.7571 32.7012 42.4519 32.4836 42.8576C31.9667 43.8207 29.952 43.871 29.6775 42.9277ZM81.574 40.9877C82.1694 40.3318 82.1609 40.2426 81.4421 39.594C80.7003 38.9245 80.6487 38.9245 79.9066 39.594C79.1877 40.2426 79.1793 40.3318 79.7746 40.9877C80.1245 41.3732 80.529 41.6885 80.6743 41.6885C80.8196 41.6885 81.2242 41.3732 81.574 40.9877ZM32.9619 34.3775L34.1193 33.3576L32.5708 31.8884L31.0222 30.4193L29.554 31.8835L28.0865 33.3473L29.6224 34.9693C30.8888 36.3065 31.2153 36.4869 31.4814 35.9946C31.6592 35.6659 32.3253 34.9384 32.9619 34.3775Z" fill="currentcolor"/>
</svg>
