<svg width="112" height="119" viewBox="0 0 112 119" fill="none" xmlns="http://www.w3.org/2000/svg">
<path fill-rule="evenodd" clip-rule="evenodd" d="M21.5838 102.666C20.9523 102.311 20.3228 101.954 19.6953 101.592C18.9877 101.185 17.3039 100.218 15.9537 99.4428C10.4986 96.311 8.20903 94.859 7.99393 94.395C7.84418 94.0714 7.75655 91.3037 7.71066 85.4572L7.64438 76.9878L8.14444 76.5523C8.89228 75.901 21.9215 68.6395 22.5819 68.506C23.2266 68.3755 25.6166 69.5616 30.2117 72.2926C31.7564 73.21 33.304 74.1224 34.8545 75.0297C36.0057 75.7018 37.1105 76.4334 37.3095 76.6556C37.65 77.0361 37.6744 77.4771 37.7269 84.2115C37.7883 92.0447 37.637 94.5297 37.0744 94.9398C36.4017 95.4302 33.1583 97.3033 31.6813 98.0544C30.8598 98.4724 28.5657 99.7561 26.5837 100.907C24.6018 102.059 22.8015 103 22.583 103C22.3645 103 21.9149 102.849 21.5838 102.666ZM21.4797 85.5088C21.3487 85.3869 18.8194 83.8852 15.8593 82.1718C12.8991 80.4583 10.2543 78.901 9.98175 78.7111L9.48621 78.3657L9.5625 84.8088C9.60462 88.3525 9.68582 91.7914 9.74304 92.4507L9.84729 93.6494L10.8231 94.1426C11.36 94.4139 12.9888 95.3442 14.4429 96.21C15.897 97.0755 17.9947 98.3188 19.1044 98.9723C20.2143 99.6262 21.2341 100.297 21.3706 100.464C21.577 100.716 21.6274 99.4948 21.6686 93.2486C21.7071 87.3889 21.6654 85.6813 21.4797 85.5088ZM27.5193 98.1121C29.0248 97.2427 31.4296 95.9022 32.8635 95.1333L35.4705 93.7354L35.5784 92.2071C35.6377 91.3666 35.7079 87.9643 35.7346 84.6466L35.7827 78.6143L34.1775 79.5981C33.2946 80.1391 31.595 81.1026 30.4005 81.7395C29.2061 82.3761 27.209 83.5008 25.9626 84.2382L23.6964 85.5797L23.647 93.0629L23.5977 100.546L24.1899 100.12C24.5157 99.8848 26.014 98.9817 27.5193 98.1121ZM61.2203 97.3577C60.7323 97.0268 58.4208 95.6359 56.0839 94.2672C53.7469 92.8983 49.7102 90.4911 47.1136 88.9177C42.2619 85.9783 41.8984 85.665 42.4955 84.9374C42.9973 84.3257 43.8433 84.6254 47.0192 86.5394C48.7799 87.6004 50.5425 88.6583 52.3069 89.713C53.5014 90.4255 55.0735 91.3908 55.8006 91.8579C57.7142 93.0874 61.8229 95.5395 61.8771 95.4844C61.9026 95.4587 62.0112 86.1143 62.1189 74.7193C62.2261 63.3241 62.4484 45.4044 62.6129 34.8976C62.7774 24.3909 62.8841 15.1549 62.8499 14.3732L62.788 12.9519L61.7619 14.4687C61.006 15.5826 60.2453 16.6932 59.4797 17.8003C58.7889 18.7985 56.9594 21.4633 55.4138 23.7223C53.8687 25.9812 51.3328 29.5917 49.7786 31.7456C48.2246 33.8995 45.156 38.1547 42.9593 41.2017C40.5938 44.4827 38.2259 47.7621 35.8558 51.0398C34.1454 53.4038 31.4934 57.1217 29.9628 59.3019C27.7382 62.4704 27.0934 63.2658 26.7505 63.2658C26.5144 63.2658 26.2195 63.1627 26.0948 63.0366C25.4272 62.3613 25.6699 61.9779 35.513 48.1621C38.6637 43.7399 41.8098 39.3143 44.9513 34.8854C46.9563 32.0553 49.4577 28.5793 50.5104 27.1609C51.5628 25.7425 54.7814 21.2097 57.6626 17.088C60.5441 12.9665 63.086 9.46332 63.3116 9.30342C64.4128 8.52325 65.0503 9.05584 67.9601 13.1865C69.1923 14.9362 71.5282 18.1298 73.151 20.2837C74.7736 22.4376 76.9257 25.3604 77.9334 26.7788C78.9409 28.1972 81.9415 32.4095 84.6012 36.1393C87.2607 39.8692 90.6985 44.7262 92.2407 46.9326C93.7828 49.139 96.3347 52.7066 97.9118 54.8604C99.4886 57.0143 102.444 61.0976 104.48 63.9344C106.515 66.7713 108.783 69.9089 109.518 70.9071C110.97 72.8787 111.234 73.4747 110.827 73.8606C110.684 73.9963 100.031 79.4617 87.1546 86.0056C67.7766 95.8537 63.6019 97.9086 62.9254 97.9317C62.2932 97.9533 61.9066 97.8232 61.2203 97.3577ZM91.2095 81.8517C100.506 77.1189 108.232 73.2094 108.38 73.1645C108.562 73.1085 107.291 71.195 104.4 67.1713C100.792 62.1502 97.1912 57.1232 93.5989 52.0905C93.0735 51.355 91.2318 48.8191 89.506 46.455C86.4315 42.2434 81.6888 35.631 76.2838 28.0205C74.7913 25.9192 71.7391 21.705 69.5011 18.6554C67.2629 15.6059 65.296 12.9015 65.1302 12.6451C64.8521 12.2153 64.8196 13.236 64.7106 25.8309C64.6457 33.3392 64.4676 46.0157 64.3148 54.0008C64.1622 61.9859 63.9887 73.763 63.9292 80.1721C63.8699 86.5812 63.7762 92.7361 63.721 93.8494L63.621 95.8738L68.9644 93.1653C71.9033 91.6757 81.9135 86.5845 91.2095 81.8517ZM22.9333 83.91C22.9932 83.812 24.0815 83.1545 25.3523 82.4486C26.6226 81.7432 29.2603 80.2617 31.2133 79.1566L34.7646 77.1473L33.8572 76.5738C33.3583 76.2585 31.7602 75.3576 30.3061 74.5718C28.852 73.7861 26.6102 72.5477 25.3243 71.8196C23.6725 70.8845 22.8631 70.5273 22.5666 70.6028C22.3356 70.6612 19.691 72.0858 16.6896 73.7682C13.6883 75.4506 11.1475 76.8587 11.0436 76.8973C10.7774 76.9966 10.7349 76.9679 13.9708 78.8748C15.899 80.0148 17.819 81.169 19.7306 82.3373C21.2886 83.293 22.6219 84.0779 22.6939 84.0816C22.7656 84.0854 22.8733 84.008 22.9333 83.91ZM4.06288 69.3311C3.56847 68.6181 2.6909 66.1315 2.32586 64.409C2.07563 63.2284 1.98744 62.0362 2.00142 60.0183C2.01803 57.5897 2.09036 56.9771 2.58949 55.0476C3.292 52.3308 4.27892 50.311 5.99517 48.0769C7.4459 46.1884 9.90149 43.7067 11.5158 42.4976C14.5908 40.1942 19.1647 37.7486 23.5076 36.0859C28.2082 34.286 37.018 32.0876 38.263 32.4035C38.8218 32.5455 39.0655 33.3782 38.6662 33.782C38.5114 33.9387 36.9949 34.3692 35.296 34.7387C29.9598 35.8998 23.4168 38.0407 20.1816 39.6841C14.5785 42.5305 10.9096 45.335 8.22225 48.825C5.04904 52.9467 4.06326 55.7508 4.08648 60.5914C4.10065 63.5014 4.38694 65.1379 5.27415 67.3789C5.81916 68.7561 5.83956 68.8896 5.56743 69.3097C5.19238 69.8885 4.45682 69.899 4.06288 69.3311ZM11.5382 64.6258C11.2393 64.3234 11.1624 63.8452 11.0536 61.617C10.8995 58.46 11.1169 56.6687 11.8751 54.8429C13.1954 51.6645 17.0126 47.5737 20.5287 45.5692C21.8799 44.799 22.4754 44.79 22.7337 45.5362C22.9609 46.1928 22.7715 46.4264 21.0581 47.6026C17.7343 49.8839 15.2423 52.5444 13.916 55.227L13.121 56.8351L13.0681 60.5759C13.0184 64.0957 12.992 64.3362 12.6224 64.6508C12.1257 65.0734 11.9773 65.0699 11.5382 64.6258Z" fill="currentcolor"/>
</svg>
