<svg width="112" height="119" viewBox="0 0 112 119" fill="none" xmlns="http://www.w3.org/2000/svg">
<path fill-rule="evenodd" clip-rule="evenodd" d="M25.3235 110.693C23.6593 110.248 21.8161 108.397 21.3525 106.707C21.1123 105.832 20.9963 92.103 21.0001 65.0451C21.0052 26.4356 21.0333 24.6273 21.6423 23.2687C22.9503 20.353 24.9047 19.6657 31.8886 19.6657H37.2101L38.2526 18.6729C39.6486 17.3441 41.1294 16.8944 44.1095 16.8944H46.5973L46.8374 15.7686C47.184 14.1422 48.1462 12.4092 49.5404 10.8992C54.5402 5.48482 63.6376 8.02399 65.8342 15.4475L66.2626 16.8944H68.7853C71.5382 16.8944 73.3297 17.4684 74.7079 18.7917C75.5276 19.5788 75.8051 19.6179 81.3798 19.7281C86.229 19.8237 87.3882 19.9487 88.3514 20.4787C89.891 21.326 91.041 22.6892 91.4646 24.169C91.6733 24.8982 91.8122 30.9219 91.8136 39.2817L91.8153 53.182L93.4603 53.8984C99.658 56.5976 104.141 61.8928 106.566 69.3794C107.226 71.4169 107.347 72.513 107.333 76.3034C107.318 80.2399 107.199 81.1704 106.383 83.6985C105.483 86.4874 104.385 88.8104 103.061 90.7271L102.43 91.6402L106.765 97.1353C111.747 103.449 111.997 103.863 112 105.783C112.004 108.85 109.146 111.018 106.254 110.14C104.855 109.715 104.885 109.749 97.1494 99.7891C96.3795 98.7977 95.6361 97.9791 95.4968 97.9705C95.3572 97.9611 94.4721 98.2947 93.5294 98.7118L91.8153 99.4694V102.759C91.8153 106.954 91.1242 108.607 88.7886 109.996L87.1963 110.944L56.9161 110.994C37.3668 111.027 26.1706 110.92 25.3235 110.693ZM87.0211 107.482C88.4441 106.737 88.7359 105.982 88.7359 103.045V100.47L84.7157 100.461C80.5127 100.452 77.6757 99.8272 74.559 98.2216C73.3228 97.5846 72.5523 97.5288 65.1499 97.5399C60.7157 97.5465 56.3495 97.4637 55.4476 97.3563C53.5836 97.1346 52.8781 96.3489 53.4946 95.1826C53.8436 94.5216 54.2111 94.4898 61.44 94.4898H69.0193L68.1218 93.5372C67.6285 93.0134 66.7909 91.9863 66.2616 91.2547L65.2988 89.9252L59.7382 89.9425C54.2409 89.9598 54.1714 89.9504 53.6407 89.1305C53.224 88.4865 53.1884 88.1405 53.4823 87.5848C53.8382 86.9121 54.1577 86.8688 58.7757 86.8688H63.6907L62.8219 84.3573C62.1513 82.4168 61.9149 80.921 61.7828 77.7756L61.6121 73.7053H57.9203C55.0196 73.7053 54.1122 73.5886 53.69 73.1611C53.0297 72.4922 53.0228 72.2854 53.637 71.4332C54.0544 70.854 54.6737 70.7369 58.1099 70.5876L62.098 70.4144L62.7463 68.5092C63.1029 67.4613 63.3998 66.5648 63.4057 66.5174C63.4118 66.4699 61.505 66.4308 59.1681 66.4308C56.8313 66.4308 54.6713 66.3344 54.3685 66.2167C53.495 65.8772 53.0717 64.8064 53.4946 64.0059C53.8378 63.3567 54.2111 63.3131 59.4364 63.3131H65.0117L66.1545 61.7019C69.2803 57.2953 74.262 53.8745 79.4979 52.5398C80.575 52.2654 82.9526 52.0732 85.0579 52.0909L88.7359 52.1213V25.2193L87.795 24.1915C86.6807 22.9746 87.0704 23.0373 80.9521 23.0889L76.0764 23.1298V26.0621C76.0764 28.6065 75.9889 29.0419 75.4147 29.353C74.9816 29.5875 68.3863 29.7115 56.3666 29.7115C39.7385 29.7115 37.9211 29.6568 37.3551 29.1382C36.8501 28.6758 36.7293 28.0401 36.7293 25.8474V23.1298L31.3405 23.135C28.3765 23.1381 25.7888 23.2548 25.5897 23.3948C25.3905 23.5347 24.967 24.035 24.6488 24.5061C24.1133 25.2983 24.0698 28.3547 24.0698 65.3129C24.0698 109.095 23.974 107.044 26.0434 107.505C26.5576 107.62 27.1321 107.763 27.3203 107.822C27.5084 107.882 40.7907 107.949 56.8364 107.971C82.3826 108.006 86.1363 107.946 87.0208 107.482H87.0211ZM108.783 106.441C109.305 105.634 109.302 105.51 108.735 104.622C107.719 103.033 100.638 94.1434 100.388 94.1434C100.26 94.1434 99.7145 94.6086 99.1763 95.1774L98.1977 96.2118L100.383 99.0745C106.442 107.014 106.694 107.307 107.46 107.307C107.896 107.307 108.463 106.936 108.783 106.441ZM31.6324 100.942C31.3586 100.607 31.2697 98.0948 31.334 92.5412L31.426 84.6172L37.3356 84.5222C43.7851 84.419 44.115 84.5215 43.2822 86.3714C42.9082 87.2027 42.8367 87.2152 38.4476 87.2152H33.9922V98.3003H44.5988V94.9986C44.5988 91.4223 44.7822 91.0829 46.4813 91.5145L47.336 91.7317V96.1591C47.336 99.1406 47.2018 100.722 46.9254 101.002C46.2927 101.643 32.1613 101.586 31.6324 100.942ZM89.7097 96.6974C95.3596 95.0516 99.9259 90.9765 102.415 85.3588C103.797 82.2387 104.275 79.8253 104.243 76.1302C104.193 70.3452 102.387 65.608 98.6648 61.5021C89.5557 51.4535 73.536 53.7571 67.2336 66.0216C65.2724 69.8384 64.6897 72.6245 64.8666 77.3426C65.0617 82.5377 66.4504 86.3305 69.6646 90.4451C71.5724 92.8873 76.1261 95.8311 79.411 96.7463C81.7787 97.4055 87.3698 97.3792 89.7097 96.6978V96.6974ZM36.8956 94.6121C35.8637 93.3799 35.0186 92.1713 35.0186 91.9257C35.0186 91.6804 35.3156 91.2076 35.6783 90.875C36.495 90.1268 37.5652 90.4091 38.3176 91.5713C38.6163 92.0334 38.9786 92.4113 39.1223 92.4113C39.266 92.4113 41.051 90.151 43.0885 87.3884C46.2934 83.0427 46.9202 82.3655 47.7363 82.3655C48.346 82.3655 48.8168 82.6239 49.0659 83.0954C49.3919 83.7123 49.2773 84.0747 48.3258 85.4336C47.7065 86.3184 47.1125 87.1199 47.0058 87.2152C46.899 87.3105 45.3091 89.4367 43.4724 91.9402C41.6358 94.4437 39.8272 96.5731 39.4529 96.6721C38.9331 96.8097 38.3296 96.3233 36.8956 94.6121ZM83.2616 90.3329C82.8852 89.9518 82.5773 89.4062 82.5773 89.1205C82.5773 88.5361 83.7632 87.2152 84.288 87.2152C84.8129 87.2152 85.9988 88.5361 85.9988 89.1205C85.9988 89.7048 84.8129 91.0257 84.288 91.0257C84.0998 91.0257 83.6379 90.7139 83.2616 90.3329ZM83.1336 83.9184C82.4647 83.2412 82.4527 82.7746 83.0381 80.2555C83.6133 77.7818 84.2076 76.9328 86.4114 75.4349C87.3944 74.7664 88.5505 73.6915 88.9809 73.0454C90.5767 70.6476 89.5581 66.6171 87.0201 65.2859C85.5215 64.4995 82.8985 64.6668 81.6244 65.6302C80.5155 66.4685 79.1784 69.035 79.1654 70.3507C79.1448 72.4188 77.8176 73.3402 76.614 72.1219C75.3952 70.8876 76.5548 66.4259 78.6669 64.2245C80.5692 62.2409 81.7168 61.7688 84.6569 61.7612C86.9527 61.7549 87.4419 61.8745 88.9248 62.8025C89.9629 63.4523 90.9934 64.4957 91.6353 65.5467C92.566 67.0709 92.67 67.5247 92.6648 70.041C92.6563 73.9908 91.6103 75.8167 87.9733 78.2284C86.5448 79.1758 86.0655 80.0997 85.7185 82.5761C85.5085 84.0723 85.3757 84.2832 84.585 84.3761C84.0906 84.4342 83.4409 84.2295 83.1336 83.9184ZM31.8537 77.4881C31.3111 77.168 31.255 76.3941 31.255 69.254C31.255 63.5864 31.3703 61.2565 31.6655 60.9575C31.9512 60.6683 33.7742 60.5418 37.6638 60.5418C42.5503 60.5418 43.2791 60.6139 43.4693 61.1158C43.5891 61.4314 43.4622 62.0941 43.1874 62.588C42.6981 63.4679 42.6078 63.4873 38.7679 63.5372C36.6116 63.5649 34.6552 63.6041 34.4198 63.6238C34.0969 63.6508 33.9922 65.0181 33.9922 69.202V74.7445H44.5741L44.672 71.3671C44.7654 68.1385 44.8044 67.9847 45.5585 67.8763C47.1153 67.6529 47.336 68.2667 47.336 72.8126C47.336 75.6317 47.1998 77.1687 46.9254 77.4465C46.4009 77.9776 32.7474 78.015 31.8537 77.4881ZM36.7591 70.9039C35.8018 69.7438 35.0186 68.5837 35.0186 68.3253C35.0186 67.8521 36.2828 66.7772 36.8392 66.7772C37.0041 66.7772 37.6022 67.2788 38.1674 67.8915C39.1665 68.9744 39.2096 68.9869 39.6742 68.3246C44.6176 61.2804 46.8884 58.4703 47.6405 58.4668C48.3658 58.4637 49.3481 59.2774 49.3779 59.9055C49.3841 60.0319 48.4305 61.4349 47.2593 63.0231C46.0881 64.6118 44.8075 66.3826 44.4137 66.959C44.0195 67.5354 43.4478 68.3149 43.1426 68.6911C42.8374 69.0673 41.9587 70.1938 41.1903 71.1939C40.3808 72.2473 39.5206 73.0125 39.1459 73.0125C38.773 73.0125 37.7623 72.1191 36.7591 70.9039ZM32.4525 53.6642L31.426 53.4339L31.3337 45.4939C31.2765 40.5485 31.3706 37.4233 31.5831 37.2081C31.9663 36.8202 42.5815 36.7533 43.1915 37.1354C43.7006 37.4537 43.6555 38.405 43.0961 39.1511C42.7053 39.6721 42.0344 39.7574 38.3169 39.7574H33.9922V50.7811L39.2955 50.824L44.5988 50.8673V47.5533C44.5988 43.9634 44.7811 43.6247 46.4813 44.0566L47.336 44.2738V48.7283C47.336 51.8802 47.2111 53.2815 46.9083 53.5208C46.4265 53.9019 34.0606 54.0245 32.4525 53.6642ZM53.4974 49.1152C53.2336 48.6164 53.2336 48.2187 53.4974 47.7199C53.8566 47.0406 54.144 47.0243 64.3353 47.1137C73.8758 47.1968 74.8382 47.2592 75.1821 47.8113C75.4575 48.2534 75.4575 48.5817 75.1821 49.0238C74.8382 49.5763 73.8758 49.6379 64.3353 49.7214C54.144 49.8108 53.8563 49.7945 53.4974 49.1152ZM36.7591 47.0018C35.8018 45.8417 35.0186 44.6763 35.0186 44.4117C35.0186 44.1467 35.4035 43.6749 35.874 43.3628C36.6678 42.8362 36.7923 42.8373 37.6032 43.3749C38.0836 43.6936 38.5619 44.1792 38.6663 44.454C38.7703 44.7287 38.966 44.9535 39.1008 44.9535C39.2363 44.9535 40.9997 42.706 43.0204 39.9593C45.0408 37.2126 46.9267 34.8751 47.2107 34.7646C48.2841 34.3475 49.2421 35.3071 49.0583 36.6144C48.9991 37.0353 47.559 39.2177 46.9842 39.7574C46.883 39.8526 45.2855 41.9962 43.4341 44.5205C39.4002 50.0218 39.2869 50.064 36.7591 47.0018ZM54.2607 42.2976C53.4874 41.9823 53.0953 40.8593 53.4946 40.1038C53.8512 39.4293 54.2111 39.4109 67.1645 39.4109C74.4817 39.4109 80.7119 39.5055 81.0095 39.6212C81.7944 39.9261 81.7092 41.7256 80.8891 42.1701C80.2178 42.5338 55.1339 42.6537 54.2607 42.2976ZM72.9971 24.371C72.9971 23.1481 72.9013 21.8952 72.7846 21.5869C72.3604 20.4676 70.7653 20.0125 67.2658 20.0125C63.5127 20.0121 63.0748 19.8046 63.0748 18.0265C63.0748 14.4093 59.7885 11.1566 56.2695 11.2903C52.6995 11.4261 49.731 14.4966 49.731 18.0532C49.731 18.703 49.5384 19.3952 49.3033 19.5916C49.0679 19.788 47.1591 20.0021 45.0614 20.0672C40.1098 20.2207 39.8087 20.4486 39.8087 24.0495V26.5939H72.9971V24.371ZM54.5238 19.842C53.4029 18.6341 53.4577 17.016 54.6542 15.974C55.8041 14.9722 56.8898 14.9428 58.0675 15.8805C58.7654 16.4365 58.969 16.9031 58.969 17.9458C58.969 20.5061 56.2257 21.6766 54.5238 19.842Z" fill="currentcolor"/>
</svg>
