<svg width="112" height="119" viewBox="0 0 112 119" fill="none" xmlns="http://www.w3.org/2000/svg">
<path fill-rule="evenodd" clip-rule="evenodd" d="M29.3803 118.36C25.5869 117.401 22.4789 115.694 22.4789 114.57C22.4789 112.804 23.324 112.746 26.8536 114.27C29.693 115.497 30.6947 115.727 33.8299 115.872C37.9704 116.064 39.7249 115.698 44.169 113.716C49.5087 111.335 51.4762 110.86 56 110.857C60.4946 110.855 63.2279 111.513 67.4236 113.604C70.7678 115.271 73.5615 115.948 77.0717 115.943C80.7039 115.938 83.2933 115.35 86.2747 113.854C88.6267 112.674 89.9155 112.921 89.9155 114.553C89.9155 115.278 89.4296 115.714 87.582 116.648C81.1724 119.888 72.2881 119.77 65.9392 116.361C59.6491 112.984 53.8408 112.853 46.9122 115.934C41.3256 118.419 40.2916 118.7 36.0845 118.885C33.12 119.015 31.4554 118.885 29.3803 118.36ZM30.3662 104.068C28.9563 103.753 25.9394 102.613 23.662 101.536C19.2971 99.4719 16.6998 98.8059 13.059 98.8176C10.5698 98.825 6.216 99.6527 3.72794 100.591C1.4347 101.456 0.229521 101.229 0.0745352 99.9039C-0.0784788 98.5933 0.949634 98.0153 5.57003 96.8142C9.06214 95.9067 13.6506 95.6633 17.2535 96.1949L19.3239 96.5006V85.5685H10.1352C3.5142 85.5685 0.814366 85.438 0.473239 85.1011C0.156563 84.7884 0 83.0529 0 79.8569C0 75.5329 0.072169 75.0418 0.762704 74.6769C1.18231 74.4549 3.40101 74.2738 5.69228 74.2738H9.85915V69.0159C9.85915 66.124 9.8067 63.758 9.74242 63.758C9.67853 63.758 8.05572 64.556 6.13673 65.5312C1.95093 67.6581 0.197183 67.7797 0.197183 65.9425C0.197183 65.3232 0.46338 64.6853 0.788732 64.5248C1.11408 64.3651 2.90648 63.5177 4.77183 62.6425C8.80186 60.7524 12.7988 57.2985 15.5372 53.3407C17.4121 50.6307 19.3007 46.0673 19.3153 44.2122C19.3204 43.6369 19.4994 42.7112 19.7136 42.1542L20.1032 41.142L24.3474 41.2526L28.5915 41.3632L28.9256 42.9211C30.1938 48.8349 32.1404 52.649 35.8629 56.5114C43.4272 64.3605 53.8846 67.1086 64.5305 64.0454C73.9937 61.3226 81.7194 52.9843 83.0259 44.0829C83.1824 43.0157 83.4873 41.9229 83.7038 41.6553C84.2492 40.9796 91.6361 40.9796 92.1886 41.6553C92.4079 41.9233 92.708 42.9308 92.8555 43.8948C93.3192 46.9183 94.6372 50.3787 96.2829 52.8936C99.2722 57.4609 104.727 61.9956 109.167 63.6033C111.663 64.5069 112.162 65.0132 111.834 66.3043C111.589 67.271 111.445 67.3403 110.107 67.1335C109.304 67.0097 107.272 66.2066 105.592 65.3497L102.535 63.7907V74.2738H106.648C112.064 74.2738 112 74.2068 112 79.8744C112 82.767 111.833 84.4733 111.507 84.906C111.075 85.4801 109.919 85.5732 102.141 85.662L93.2676 85.7632L93.1575 91.1668L93.0471 96.5704L93.9463 96.3297C97.3366 95.4202 102.977 95.7178 107.71 97.0553C111.499 98.1263 112.628 99.1759 111.643 100.711C111.242 101.338 110.542 101.234 105.493 99.7987C102.896 99.0607 101.16 98.8095 99.0229 98.862C94.6605 98.9695 92.9832 99.3929 88.5896 101.496C84.6783 103.369 79.9818 104.653 77.0398 104.653C74.433 104.653 69.5855 103.418 67.2394 102.156C62.6186 99.6714 60.5009 99.0743 56.1972 99.0443C51.8039 99.0143 50.807 99.2663 45.5493 101.741C43.5972 102.66 41.3789 103.612 40.6197 103.857C38.3355 104.595 33.1922 104.701 30.3662 104.068ZM39.745 100.786C40.9853 100.373 43.286 99.4069 44.8576 98.6393C52.4471 94.9326 59.315 94.9338 67.0138 98.6432C72.9293 101.493 76.5058 102.137 80.6707 101.101L82.4225 100.666V85.5685H56.1972C31.4893 85.5685 29.971 85.6078 29.956 86.2501C29.8369 91.4461 30.0282 100.577 30.2605 100.796C31.2385 101.718 36.9647 101.712 39.745 100.786ZM26.8169 92.5596V85.5295L24.6171 85.6464L22.4177 85.7632L22.3495 91.5508L22.2817 97.3388L24.4507 98.4453C25.6437 99.054 26.6639 99.5604 26.7183 99.5709C26.7727 99.581 26.8169 96.4263 26.8169 92.5596ZM89.8271 91.462L89.936 85.5685H85.6252L85.5029 89.9501C85.4355 92.3602 85.4331 95.527 85.4974 96.9879L85.6149 99.6441L87.6664 98.4998L89.7183 97.3555L89.8271 91.462ZM108.845 80.1159V77.3895H3.15493V82.8422H108.845V80.1159ZM19.7183 63.5305V52.7873L17.7279 55.7266C16.6332 57.3429 15.036 59.2588 14.1786 59.9836L12.6197 61.3008V74.2738H19.7183V63.5305ZM26.0282 59.279V44.2843H22.8732V74.2738H26.0282V59.279ZM36.2052 67.7501L36.077 61.2264L33.6394 58.789C32.2986 57.4485 30.8079 55.6588 30.326 54.8125C29.8444 53.9662 29.346 53.3376 29.2178 53.4155C29.0368 53.5261 28.9603 73.7772 29.1393 74.1764C29.1634 74.2297 30.7917 74.2738 32.7584 74.2738H36.3337L36.2052 67.7501ZM48.507 70.8148V67.3555L46.7927 66.9294C45.8502 66.695 43.7206 65.8288 42.0603 65.0054L39.0422 63.5067V74.2738H48.507V70.8148ZM61.1267 71.2553V68.2369H51.2676V74.2738H61.1267V71.2553ZM72.9577 69.0813V63.8888L70.4452 65.1379C69.0634 65.8245 67.0221 66.6171 65.91 66.8983L63.8873 67.4108V74.2738H72.9577V69.0813ZM83.4084 63.758C83.4084 57.9743 83.3197 53.2507 83.2112 53.2608C83.1028 53.271 82.3929 54.2501 81.6338 55.4361C80.8746 56.622 79.3216 58.4638 78.1831 59.5287L76.1126 61.4651V74.2738H83.4084V63.758ZM89.5211 59.279V44.2843H86.3662V74.2738H89.5211V59.279ZM99.3802 67.7337V61.1937L97.5792 59.4574C96.5885 58.5024 95.0801 56.6933 94.2271 55.4372L92.676 53.1534V74.2738H99.3802V67.7337ZM17.4507 31.4347C16.4731 31.0297 16.2447 29.5652 17.0366 28.7832C17.3904 28.4338 21.9043 28.3158 34.9184 28.3158C51.3129 28.3158 52.4609 28.2702 54.6248 27.5353C58.6915 26.1535 62.8154 22.9239 64.415 19.8689C65.2589 18.258 68.2029 15.6848 70.543 14.5136L72.5373 13.5158H94.4034L90.3848 9.4828C88.1743 7.26474 86.3662 5.24921 86.3662 5.00384C86.3662 4.43911 87.8044 3 88.3688 3C88.9457 3 99.5017 13.7923 99.874 14.7625C100.278 15.8153 99.5688 16.7005 93.7294 22.4285C89.4032 26.6718 88.6921 27.2218 87.8127 27.0041C87.263 26.8678 86.6935 26.384 86.5472 25.9291C86.3291 25.2495 86.9908 24.3993 90.2676 21.1526C92.4599 18.9801 94.2535 17.074 94.2535 16.9171C94.2535 16.7601 89.671 16.6316 84.071 16.6316H73.888L71.7514 17.7026C70.317 18.422 69.0626 19.4771 67.9331 20.9158C64.639 25.1108 62.4755 27.3071 60.2114 28.754C55.8399 31.5477 55.8959 31.5407 36.0845 31.6789C25.5415 31.7521 17.978 31.6532 17.4507 31.4347Z" fill="currentcolor"/>
</svg>
