<svg width="112" height="119" viewBox="0 0 112 119" fill="none" xmlns="http://www.w3.org/2000/svg">
<path fill-rule="evenodd" clip-rule="evenodd" d="M50.6201 116.326L45.888 113.616L45.8493 108.016L45.8106 102.416L50.672 99.6599L55.5333 96.9037L59.805 99.3516C62.1546 100.698 64.3265 101.962 64.6314 102.16L65.1859 102.521L65.1843 107.645C65.1834 110.463 65.1437 113.004 65.096 113.291C65.0112 113.803 64.9235 113.861 60.416 116.388C57.8895 117.805 55.7166 118.98 55.5872 119C55.458 119.019 53.2227 117.816 50.6201 116.326ZM54.8258 108.481C54.7099 108.341 48.8525 104.856 47.1058 103.887C47.0436 103.853 47.0104 105.866 47.0318 108.362L47.071 112.898L50.9897 115.135L54.9085 117.371L54.9477 113.022C54.9744 110.05 54.9358 108.613 54.8258 108.481ZM60.0969 115.243L64.0029 113.071V108.458C64.0029 105.921 63.9807 103.845 63.9537 103.845C63.9265 103.845 62.1465 104.867 59.998 106.116L56.0915 108.388L56.0853 112.901C56.0819 115.384 56.1042 117.415 56.135 117.415C56.1657 117.415 57.9485 116.438 60.0969 115.243ZM59.1401 105.298C63.3363 102.869 63.2635 102.913 63.2635 102.808C63.2635 102.763 62.9143 102.524 62.4872 102.277C57.7777 99.549 55.6287 98.3388 55.503 98.3444C55.42 98.3481 53.603 99.3495 51.4653 100.57C48.8671 102.053 47.6414 102.829 47.7684 102.91C48.4615 103.354 55.3699 107.378 55.4432 107.381C55.4935 107.383 57.1571 106.446 59.1401 105.298ZM55.0933 94.9824C54.7327 94.773 54.7528 93.9337 55.1265 93.5963C55.4 93.3495 55.4422 93.3484 55.7919 93.5769C56.2274 93.8615 56.2997 94.5444 55.9331 94.91C55.6658 95.1766 55.4584 95.1947 55.0933 94.9824ZM14.106 93.7077C13.9498 93.6679 11.8369 92.5091 9.41088 91.1325L5 88.6296L5.00444 82.8509L5.00887 77.0722L9.66005 74.4371C12.6708 72.7314 14.3963 71.8348 14.5527 71.8947C14.8451 72.0065 20.6494 75.241 22.5622 76.3578L23.9317 77.1576L23.8931 82.8646L23.8543 88.5717L22.2277 89.5128C19.5974 91.0347 14.5642 93.8155 14.4737 93.7971C14.4279 93.7876 14.2623 93.7474 14.106 93.7077ZM95.1279 93.1162C94.479 92.7325 92.4175 91.5467 90.5469 90.4813C87.56 88.7799 87.1343 88.4922 87.0522 88.1182C86.9199 87.5148 86.9058 77.3997 87.037 77.2122C87.1686 77.0245 89.1997 75.8517 93.3812 73.5487L96.5115 71.8246L100.997 74.3593C103.464 75.7532 105.599 77.0243 105.741 77.1837C105.978 77.4488 106 77.9443 106 82.9707C106 87.1913 105.957 88.5022 105.815 88.6155C105.654 88.7447 102.505 90.5257 98.0146 93.0281C97.242 93.4589 96.5418 93.8117 96.459 93.8126C96.3759 93.8135 95.777 93.5002 95.1281 93.1163L95.1279 93.1162ZM13.8726 87.781V83.2231L13.3181 82.8953C13.013 82.7151 11.4025 81.772 9.73901 80.7995C8.07569 79.827 6.56173 78.9314 6.37481 78.8092L6.03514 78.5871V87.8616L9.91691 90.1003C12.052 91.3315 13.8154 92.339 13.8357 92.3391C13.8559 92.3391 13.8726 90.2879 13.8726 87.781ZM101.375 89.8505L104.809 87.8955L104.85 83.1844C104.872 80.5935 104.855 78.4902 104.812 78.5104C104.769 78.5307 103.371 79.3372 101.707 80.3026C100.428 81.0447 99.1476 81.7853 97.8668 82.5243L97.0534 82.9915L97.0144 87.681L96.9754 92.3706L97.458 92.0879C97.7235 91.9324 99.486 90.9254 101.375 89.8503V89.8505ZM19.2332 89.8349L22.7452 87.875V83.3094C22.7452 80.7984 22.6954 78.7662 22.6343 78.7932C22.5733 78.8201 20.8431 79.7953 18.7895 80.9603L15.0556 83.0782V92.2255L15.3884 92.0102C15.5714 91.8916 17.3016 90.9127 19.2332 89.8348V89.8349ZM95.9096 87.5884L95.8704 83.1325L92.2474 81.0187C90.2548 79.8561 88.5079 78.8387 88.3657 78.7579C88.1217 78.6192 88.1069 78.8697 88.1069 83.1605V87.7102L91.9147 89.8719C94.0091 91.0608 95.7734 92.036 95.8357 92.039C95.8978 92.0419 95.9311 90.0391 95.9096 87.5884ZM55.0667 90.78C54.939 90.6524 54.8261 90.4533 54.8159 90.3375C54.804 90.2054 54.7891 90.0737 54.7714 89.9423C54.7233 89.603 55.1821 88.7991 55.4237 88.7991C55.8185 88.7991 56.0174 89.1192 56.0174 89.7545C56.0174 90.3314 55.6984 91.0117 55.4281 91.0117C55.3571 91.0117 55.1945 90.9074 55.0667 90.78ZM49.1413 83.5073C46.0102 81.7416 42.8801 79.974 39.7511 78.2046C38.0025 77.2148 35.4587 75.7917 34.0982 75.0422L31.6247 73.6795L31.6582 60.1893L31.6918 46.6991L36.0542 44.1819C38.4535 42.7973 41.814 40.8273 43.522 39.8039C45.2299 38.7807 48.5209 36.8346 50.8354 35.4796L55.0435 33.0158L55.5367 33.2503C56.4106 33.6663 63.5748 37.6755 71.5824 42.2303L79.3838 46.6675L79.3459 60.0162L79.3082 73.3648L76.2767 75.1192C72.7042 77.184 69.1305 79.2467 65.5556 81.3074C61.3264 83.746 57.3751 86.0309 56.7751 86.385C56.1752 86.739 55.6096 87.0245 55.5182 87.0193C55.4269 87.0143 52.5572 85.4338 49.1413 83.5073ZM54.8346 72.9647V60.5234L43.8579 54.2684C37.8207 50.8283 32.8299 47.9914 32.7672 47.9644C32.7043 47.9373 32.653 53.5217 32.653 60.3741V72.8333L40.6014 77.3345C44.9731 79.8099 49.9472 82.6332 51.6552 83.6081C53.3632 84.5831 54.7773 85.3866 54.7976 85.3936C54.8178 85.4007 54.8346 79.8077 54.8346 72.9649V72.9647ZM59.2709 83.5923C60.6942 82.7809 65.3523 80.0908 69.6223 77.6144C72.3446 76.0349 75.0677 74.4566 77.7916 72.8795L78.1972 72.647L78.1982 60.2144L78.1991 47.7818L77.8664 47.9554C77.324 48.2386 67.6931 53.7536 64.8902 55.3861C62.9829 56.4947 61.0728 57.5986 59.16 58.6976L56.0176 60.5019V85.4166L56.3503 85.2423C56.5332 85.1464 57.8475 84.4039 59.2709 83.5923ZM17.7174 80.2045C19.3034 79.3167 20.9888 78.357 21.4626 78.0718L22.3241 77.5535L18.3704 75.3155L14.4168 73.0776L10.5239 75.2961C8.38298 76.5164 6.63227 77.5479 6.6336 77.5885C6.63508 77.629 8.34749 78.6632 10.4392 79.8866C13.6047 81.7378 14.2919 82.0862 14.5381 81.9647C14.7007 81.8843 16.1314 81.0922 17.7174 80.2045ZM100.329 79.7744C102.863 78.3236 104.173 77.4952 104.048 77.4222C103.942 77.3603 102.197 76.3563 100.17 75.1913L96.4846 73.0731L95.3097 73.7703C94.6635 74.1536 92.9149 75.1528 91.4238 75.991C89.9327 76.829 88.7102 77.5479 88.7068 77.5885C88.7013 77.6547 96.2406 82.0092 96.3661 82.0123C96.3946 82.0131 98.1782 81.0059 100.329 79.7744ZM43.3001 79.4375C43.3001 79.3998 43.1505 79.2966 42.9674 79.2081C42.648 79.0536 42.6461 79.0563 42.9217 79.2767C43.2234 79.5177 43.3001 79.5503 43.3001 79.4375ZM25.2955 76.9756C25.0049 76.6859 25.0762 76.4534 25.5611 76.109C25.8724 75.888 26.1256 75.8182 26.383 75.8827C26.7088 75.9643 26.7495 76.0441 26.7095 76.5241C26.6659 77.0492 26.6391 77.074 26.0719 77.1159C25.7392 77.1402 25.3989 77.0788 25.2955 76.9757V76.9756ZM84.2917 76.5264C84.1941 76.4291 84.1152 76.2134 84.1164 76.047C84.1216 75.3691 84.6034 75.1472 85.1863 75.5544C85.8447 76.0143 85.645 76.7034 84.8536 76.7034C84.6421 76.7034 84.3893 76.6238 84.2917 76.5264ZM28.5388 75.1443C28.5667 74.9112 28.7764 74.6015 29.0466 74.3945C29.5062 74.0423 29.5074 74.0423 29.8599 74.3311C30.1944 74.6051 30.201 74.6423 29.9865 75.035C29.801 75.3744 29.6449 75.4579 29.1255 75.4955C28.5141 75.5397 28.4928 75.5269 28.5388 75.1443ZM81.3785 75.0239C80.7231 74.7391 80.5084 74.4296 80.708 74.0578C80.9736 73.5627 81.6417 73.6087 82.2288 74.1625C82.7083 74.6147 82.7415 74.8664 82.3494 75.0755C81.9932 75.2658 81.9265 75.2623 81.3785 75.0239ZM59.9447 56.8926C62.3801 55.4887 66.8348 52.9237 69.8441 51.1928C72.0069 49.9489 74.1693 48.7044 76.3314 47.4594L77.3473 46.8733L76.1096 46.1716C75.4289 45.7858 73.1417 44.4762 71.0271 43.2615C66.2155 40.4976 58.4728 36.1344 56.5894 35.1255L55.1649 34.3621L52.301 36.0357C49.8414 37.475 47.3833 38.9168 44.9268 40.3613C42.4462 41.8199 38.8706 43.9049 36.9812 44.9945C34.3243 46.527 33.5871 47.0148 33.7279 47.1475C33.828 47.2419 36.0394 48.5179 38.642 49.9829C41.2447 51.4479 46.0359 54.1714 49.2892 56.035C52.5425 57.8986 55.2746 59.4282 55.3605 59.4342C55.4465 59.4401 57.5094 58.2965 59.9447 56.8927V56.8926ZM9.62116 44.5227L5 41.8702V30.4173L6.51574 29.5662C7.34932 29.0983 9.4162 27.9296 11.1087 26.9694C12.8011 26.0091 14.2771 25.2236 14.3887 25.2236C14.5428 25.2236 22.1851 29.5224 23.6695 30.4442C23.9086 30.5926 23.9283 31.0317 23.9283 36.2174V41.8301L22.7083 42.5441C18.8895 44.7796 14.5679 47.2003 14.4168 47.1887C14.3208 47.1813 12.1627 45.9816 9.62116 44.5227ZM96.0038 46.9074C95.9225 46.8263 93.8986 45.641 91.5063 44.2734C87.59 42.0347 87.1445 41.7413 87.0382 41.3321C86.9731 41.0819 86.9376 38.5339 86.9589 35.6699L86.9978 30.4626L90.5469 28.4325C92.4988 27.3159 94.6354 26.1037 95.2947 25.7387L96.4936 25.0752L97.9565 25.9345C98.7611 26.4069 100.118 27.1781 100.972 27.6482C101.826 28.1182 103.307 28.9623 104.262 29.5239L106 30.5451V41.8487L101.896 44.1405C96.0996 47.3779 96.3552 47.2579 96.0038 46.9074ZM28.8452 45.9433C28.4552 45.6704 28.3961 44.9745 28.7387 44.691C29.2693 44.2515 30.1233 45.2507 29.7383 45.8605C29.5312 46.1887 29.235 46.2162 28.8452 45.9433ZM80.947 45.6804C80.6021 45.4289 80.6897 45.0193 81.1639 44.6665C81.6112 44.3337 82.0108 44.4378 82.1318 44.9183C82.3225 45.6769 81.5891 46.1488 80.947 45.6804ZM13.8726 41.0257V36.472L10.0707 34.2773C7.97942 33.0702 6.21599 32.0606 6.15196 32.0336C6.08763 32.0064 6.03514 34.0438 6.03514 36.5608V41.1374L8.43814 42.4967C9.75987 43.2442 11.1073 44.0273 11.4326 44.2368C12.3005 44.7957 13.6339 45.5589 13.7617 45.57C13.8226 45.5753 13.8726 43.5304 13.8726 41.0257ZM16.7666 44.5769C18.0535 43.8474 19.3429 43.1222 20.6347 42.4012L22.7387 41.2281L22.742 36.5396L22.7452 31.8511L22.4125 32.0247C22.2294 32.1202 20.466 33.1242 18.4938 34.2559L14.9078 36.3136V40.9465C14.9078 43.4947 14.9291 45.5795 14.9551 45.5795C14.9813 45.5795 15.7965 45.1285 16.7666 44.5769ZM95.984 40.9028L95.9495 36.3736L94.5052 35.5364C93.481 34.9424 92.4573 34.3476 91.4341 33.7519C90.5395 33.2307 89.4249 32.5874 88.9572 32.3221L88.1069 31.8397V40.9549L91.619 42.9167C93.5507 43.9961 95.2974 45.0013 95.5007 45.1507C95.7041 45.3003 95.9037 45.4248 95.9444 45.4275C95.985 45.43 96.0028 43.3939 95.984 40.9028ZM101.453 43.0041L104.817 41.1119V36.5517C104.817 34.0436 104.767 32.0181 104.706 32.0505C104.645 32.083 102.915 33.0624 100.861 34.2271L97.1274 36.3447V45.4612L97.608 45.1786C97.8724 45.0233 99.6024 44.0447 101.453 43.0041ZM25.7661 43.9515C24.9462 43.649 25.0104 42.7769 25.8524 42.7769C26.3246 42.7769 26.8345 43.3457 26.6928 43.7142C26.5924 43.975 26.1421 44.0903 25.7661 43.9515ZM84.1269 43.6251C83.953 43.1657 84.1856 42.7937 84.8088 42.534C85.4504 42.2665 85.7018 42.349 85.8328 42.8697C86.041 43.6975 84.4252 44.4131 84.1269 43.6251ZM18.1795 33.0822C20.284 31.8877 22.0032 30.8755 22.0001 30.8327C21.9915 30.7197 14.7529 26.6325 14.4761 26.5842C14.276 26.5496 7.22644 30.4809 6.86961 30.8262C6.79996 30.8938 6.90835 31.0571 7.11065 31.1892C7.87399 31.6881 14.1001 35.2396 14.2238 35.2467C14.2948 35.2507 16.075 34.2767 18.1795 33.0822ZM100.423 33.1152C102.428 31.9794 104.071 31.0147 104.073 30.9714C104.08 30.8566 96.4912 26.4709 96.3593 26.513C96.0636 26.6074 88.8463 30.7494 88.8463 30.8246C88.8463 30.988 96.3141 35.2439 96.545 35.2122C96.6721 35.1946 98.4169 34.251 100.423 33.1152ZM55.0793 29.9691C54.7399 29.595 54.7634 28.7262 55.1219 28.4027C55.3975 28.1537 55.4241 28.1584 55.7873 28.5207C56.2215 28.9539 56.29 29.651 55.9331 30.0071C55.6285 30.311 55.3793 30.2999 55.0793 29.9691ZM54.9159 25.4818C54.7254 24.8689 54.7381 24.3709 54.9539 24.0067C55.2076 23.578 55.6822 23.473 55.988 23.7781C56.2058 23.9953 56.2209 24.992 56.0124 25.3809C55.8381 25.7057 55.0092 25.7819 54.9159 25.4818ZM50.5094 19.2768C46.1672 16.796 45.8081 16.5603 45.7283 16.1387C45.681 15.8879 45.6643 13.3989 45.6912 10.6072C45.74 5.53563 45.808 4.86772 46.2753 4.86772C46.4146 4.86772 47.9061 4.05407 53.4041 0.978412C54.3661 0.440308 55.2919 0 55.4618 0C55.8042 0 56.4537 0.340003 61.4612 3.14071C63.3573 4.20128 64.9718 5.18663 65.049 5.33074C65.1327 5.48651 65.1738 7.8177 65.1507 11.0857L65.112 16.5787L63.7811 17.3367C59.835 19.5842 55.6797 21.8674 55.4576 21.9102C55.3183 21.937 53.0915 20.752 50.5094 19.2768ZM54.8334 15.7463L54.8322 11.2843L54.2788 10.9795C53.9745 10.8119 52.3946 9.90861 50.7679 8.97238C49.1413 8.03616 47.6607 7.19198 47.4777 7.09625L47.1449 6.92248V15.8767L50.8788 18.0246C52.9324 19.2059 54.6626 20.1805 54.7236 20.1904C54.7847 20.2003 54.834 18.2005 54.8334 15.7463ZM58.7157 18.7599C60.1191 17.9634 61.8495 16.9956 62.5611 16.6092L63.855 15.9068V6.92248L63.5223 7.09359C63.3394 7.18755 61.5758 8.1639 59.6036 9.26297L56.0176 11.2615V15.735C56.0176 18.1954 56.0505 20.2084 56.0909 20.2084C56.1314 20.2084 57.3125 19.5566 58.7157 18.7599ZM59.3622 7.98645C61.4673 6.78117 63.179 5.74184 63.1658 5.67679C63.1352 5.52471 55.7069 1.32874 55.4669 1.32815C55.3274 1.32771 47.8088 5.49123 47.6205 5.67296C47.555 5.73638 55.1841 10.1663 55.3696 10.1725C55.4607 10.1754 57.2574 9.19173 59.3622 7.98645Z" fill="currentcolor"/>
</svg>
