<svg width="112" height="119" viewBox="0 0 112 119" fill="none" xmlns="http://www.w3.org/2000/svg">
<path fill-rule="evenodd" clip-rule="evenodd" d="M55.6717 118.888C55.3411 118.643 51.511 116.6 50.5902 116.176C50.1441 115.971 49.7097 115.718 49.625 115.615C49.4086 115.35 49.443 107.654 49.6616 107.429C49.9602 107.122 55.7762 103.781 56.0123 103.781C56.3547 103.781 56.5546 103.876 59.1626 105.279C60.4228 105.956 61.7976 106.677 62.2177 106.881L62.9815 107.252V115.602L62.7414 115.636C62.6093 115.655 61.5291 116.216 60.341 116.884C56.6306 118.967 56.0919 119.198 55.6717 118.888ZM55.7256 114.612C55.7256 112.926 55.6829 111.588 55.6289 111.588C55.5756 111.588 54.4585 110.998 53.1466 110.276C51.8346 109.554 50.6875 108.935 50.5975 108.9C50.4541 108.845 50.4363 109.214 50.4544 111.877C50.4657 113.549 50.5148 114.954 50.5635 114.999C50.6624 115.091 55.5977 117.636 55.676 117.636C55.7033 117.636 55.7256 116.275 55.7256 114.612ZM58.7727 116.511C60.2884 115.657 60.5933 115.496 61.5358 115.054L61.9449 114.862V108.602L61.0448 109.098C60.5496 109.371 59.4081 110.012 58.508 110.522L56.8713 111.449L56.8423 114.5C56.8153 117.328 56.8268 117.546 56.9979 117.479C57.0993 117.44 57.898 117.005 58.7727 116.511ZM58.5602 109.286C59.7072 108.625 60.7907 108.019 60.968 107.94C61.1453 107.861 61.2892 107.771 61.2879 107.74C61.2853 107.68 60.1619 107.038 57.6785 105.677C56.1106 104.819 56.0809 104.808 55.8236 104.995C55.4767 105.247 51.2414 107.695 51.0419 107.758C50.8337 107.824 51.1826 108.03 53.7832 109.376C54.9651 109.988 56.0544 110.489 56.2036 110.489C56.3528 110.489 57.4133 109.948 58.5602 109.286ZM37.3362 101.465C37.2096 101.259 37.1494 99.6711 37.2531 99.2729C37.3385 98.9443 37.4052 98.8828 37.7086 98.8531C38.2912 98.7956 38.3771 98.9542 38.3771 100.087C38.3771 101.251 38.2324 101.582 37.7227 101.582C37.5496 101.582 37.3757 101.529 37.3362 101.465ZM55.8308 100.985C55.743 100.899 54.9346 100.437 54.0344 99.9582C51.33 98.52 49.5722 97.5076 49.37 97.272C49.1959 97.069 49.179 96.7062 49.179 93.1636V89.2779L49.5336 89.0118C49.7287 88.8655 50.3792 88.4743 50.9794 88.1423C51.5795 87.8104 52.3969 87.3374 52.7959 87.0913C54.0089 86.3429 55.7859 85.4181 56.0111 85.4181C56.1278 85.4181 57.1303 85.9177 58.2387 86.5282C59.3469 87.1386 60.8244 87.9276 61.5218 88.2812C62.219 88.635 62.8102 88.9889 62.8353 89.068C62.8604 89.147 62.8966 90.9478 62.916 93.0697C62.9459 96.3652 62.9267 96.975 62.7842 97.2528C62.6711 97.4734 62.2544 97.7933 61.4895 98.2467C59.7911 99.2537 56.2987 101.142 56.1348 101.142C56.0555 101.142 55.9188 101.072 55.8308 100.985ZM59.9013 97.8609C61.056 97.2219 61.6402 96.8364 61.6776 96.6889C61.7891 96.2484 61.7841 90.3625 61.6722 90.4089C61.6121 90.4339 60.4583 91.069 59.1081 91.8204L56.6531 93.1867L56.6214 96.0373C56.604 97.6052 56.619 99.0519 56.6548 99.2521L56.72 99.616L57.4504 99.2145C57.852 98.9937 58.955 98.3845 59.9013 97.8609ZM55.6165 96.359C55.6165 94.2984 55.5783 93.2252 55.505 93.2252C55.4437 93.2252 54.257 92.5819 52.868 91.7957C51.479 91.0095 50.3384 90.3662 50.3335 90.3662C50.3287 90.3662 50.3384 91.7924 50.3551 93.5355L50.3856 96.7049L51.228 97.1642C52.0735 97.627 52.918 98.0917 53.7616 98.5581C54.6917 99.0722 55.4895 99.4928 55.5346 99.4928C55.5797 99.4928 55.6165 98.0826 55.6165 96.359ZM37.3812 96.5616C37.176 96.312 37.1793 94.3119 37.3853 94.0618C37.5933 93.8093 38.0085 93.8434 38.2072 94.1294C38.45 94.4785 38.4488 96.326 38.2057 96.5711C37.982 96.7965 37.5704 96.7918 37.3812 96.5616ZM57.0112 91.8312C58.6579 90.9233 61.0168 89.4943 61.0068 89.4108C61.001 89.3618 60.3948 88.9918 59.6597 88.5886C58.9247 88.1853 58.0457 87.684 57.7064 87.4747C57.3671 87.2651 56.8364 86.9657 56.527 86.8091L55.9644 86.5245L54.5084 87.3813C53.7075 87.8525 52.5748 88.5066 51.991 88.8349C51.0325 89.3737 50.7485 89.5965 51.0202 89.5965C51.0725 89.5965 51.6495 89.9017 52.3022 90.2745C54.2687 91.3982 55.8777 92.2318 56.0837 92.2337C56.1907 92.2348 56.608 92.0537 57.0112 91.8312ZM37.1769 91.1421C36.9069 90.9744 35.6548 90.253 34.3946 89.5389C33.1344 88.8246 31.8945 88.0978 31.6396 87.9236L31.1758 87.6068V79.8487L31.4213 79.6271C31.775 79.3079 34.5801 77.6679 36.3249 76.7603L37.8188 75.9833L38.3434 76.2598C38.632 76.412 39.4328 76.8447 40.1229 77.2214C40.813 77.5982 42.076 78.2706 42.9292 78.7157C43.7827 79.1607 44.5037 79.5847 44.5315 79.6579C44.6113 79.8675 44.6351 87.5753 44.5564 87.7037C44.5175 87.7671 43.7618 88.2006 42.8772 88.667C41.9924 89.1335 41.0721 89.649 40.8321 89.8127C40.2786 90.1899 37.8907 91.4691 37.7635 91.4564C37.7109 91.4511 37.4469 91.3097 37.1769 91.1421ZM37.3399 84.4686L37.2734 83.9038L35.1657 82.6819C33.1624 81.5206 32.2895 81.0704 32.2055 81.155C32.1848 81.176 32.1608 82.5018 32.1524 84.1013C32.1382 86.8122 32.1507 87.0193 32.3384 87.1552C32.4492 87.2355 33.6199 87.9115 34.9401 88.6575L37.3406 90.0139L37.3734 87.5236C37.3915 86.154 37.3765 84.7793 37.3399 84.4686ZM41.5999 88.1571C42.2622 87.742 42.9619 87.3469 43.1547 87.2792L43.5053 87.156V81.0162L42.9325 81.3051C42.6175 81.4641 41.456 82.1193 40.3515 82.7611L38.3434 83.9281L38.4141 86.6965C38.4529 88.2191 38.5143 89.5422 38.5503 89.6368C38.6052 89.781 38.759 89.7365 39.5056 89.3604C39.9951 89.1137 40.9376 88.5723 41.5999 88.1571ZM74.1169 89.1324C73.9173 88.845 73.8747 86.9695 74.06 86.6205C74.2132 86.3321 74.8874 86.3223 74.9772 86.6073C75.0117 86.7168 75.0502 87.2536 75.0626 87.7999C75.0805 88.5858 75.0456 88.8541 74.8956 89.0849C74.6642 89.4407 74.3448 89.4602 74.1169 89.1323V89.1324ZM74.1709 84.3243C73.9758 84.1277 73.9471 83.9611 73.9471 83.0237C73.9471 81.8431 74.0903 81.4597 74.5316 81.4597C74.9727 81.4597 75.0383 81.6518 75.0365 82.9387C75.0355 83.6069 74.9988 84.2089 74.9547 84.2763C74.7867 84.5332 74.4015 84.5567 74.1709 84.3243ZM55.6204 83.3363C55.5582 83.2193 55.5074 82.6538 55.5074 82.0796C55.5074 80.952 55.6178 80.69 56.0935 80.69C56.5294 80.69 56.5985 80.8859 56.5985 82.1195C56.5985 82.8794 56.5529 83.331 56.4676 83.417C56.2602 83.626 55.7483 83.5773 55.6204 83.3363ZM40.6935 81.3724L42.9737 80.0961L42.4485 79.8289C42.1595 79.682 41.1622 79.1055 40.232 78.5479C37.628 76.9865 37.9479 77.0869 37.0883 77.5613C36.687 77.7827 35.5316 78.4354 34.5209 79.0116L32.6831 80.0593L33.4297 80.4969C34.4342 81.0857 36.8178 82.4426 37.2626 82.6788C37.7786 82.9531 38.0629 82.8449 40.6935 81.3725V81.3724ZM74.1276 79.4992C73.9023 79.2483 73.8735 77.489 74.0878 77.0623C74.2604 76.7183 74.5555 76.6552 74.828 76.9037C75.0085 77.0683 75.0382 77.249 75.0382 78.1852C75.0382 78.7845 74.9873 79.3705 74.9252 79.4876C74.7826 79.7562 74.3639 79.7622 74.1276 79.4992ZM55.6254 78.4024C55.5505 78.2203 55.5117 77.67 55.5303 77.0583C55.5598 76.0907 55.5791 76.0139 55.8233 75.8917C55.9756 75.8153 56.1802 75.7962 56.3143 75.846C56.5264 75.925 56.5464 76.0258 56.575 77.168C56.6088 78.5222 56.5451 78.7107 56.0529 78.7107C55.8262 78.7107 55.7208 78.6347 55.6254 78.4024ZM37.3951 74.3148C37.1623 74.1666 37.0961 72.1473 37.3143 71.852C37.4848 71.6213 37.9973 71.5765 38.1944 71.7749C38.2663 71.8473 38.3389 72.3246 38.3597 72.8608C38.3925 73.708 38.3697 73.8523 38.1609 74.1199C37.9165 74.4332 37.677 74.4941 37.3951 74.3148ZM74.0685 74.2723C74.0005 74.1898 72.7168 73.4105 71.2159 72.5405C69.715 71.6705 68.3529 70.8521 68.1892 70.7218L67.8914 70.4849L67.8576 66.8732C67.836 64.5806 67.8653 63.1184 67.9377 62.8696C68.0389 62.5219 68.166 62.4174 69.0626 61.9448C69.9463 61.4791 72.1273 60.2216 73.7718 59.2297C74.442 58.8255 74.3528 58.7965 77.1103 60.3163C78.2799 60.961 79.665 61.7028 80.1882 61.9647C81.0471 62.3949 81.1445 62.4754 81.1938 62.7963C81.2238 62.9917 81.2795 64.8426 81.3177 66.9093L81.387 70.667L80.9675 70.9397C79.926 71.6173 74.6724 74.4223 74.4454 74.4223C74.306 74.4223 74.1364 74.3548 74.0685 74.2723ZM55.6204 73.4399C55.4709 73.1584 55.4756 71.5783 55.6272 71.1399C55.7217 70.8668 55.8092 70.7937 56.0419 70.7937C56.5336 70.7937 56.5985 70.9605 56.5985 72.2231C56.5985 72.9831 56.5529 73.4347 56.4676 73.5206C56.2602 73.7297 55.7483 73.681 55.6204 73.4399ZM74.0562 69.7711V66.6593L73.647 66.5155C73.4219 66.4364 72.7223 66.0858 72.0922 65.7365C71.4621 65.3871 70.4985 64.8755 69.951 64.5995L68.9554 64.0978L68.8753 66.9527C68.8104 69.2673 68.8229 69.8413 68.9413 69.985C69.0217 70.0827 69.4321 70.3272 69.8534 70.5286C70.2745 70.7298 71.3802 71.3378 72.3104 71.8793C73.2406 72.421 74.0138 72.8683 74.0289 72.8734C74.044 72.8786 74.0562 71.4825 74.0562 69.7711ZM77.1915 71.6843C78.2575 71.0856 79.3631 70.4821 79.6481 70.3429L80.1663 70.0899V63.9559L79.4299 64.3624C79.0248 64.586 77.8832 65.2307 76.893 65.7952L75.0927 66.8213L75.1234 69.797C75.1403 71.4337 75.1764 72.7728 75.2037 72.7728C75.231 72.7728 76.1254 72.2831 77.1915 71.6843ZM37.5193 69.4857C37.4375 69.4336 37.3292 69.1745 37.2786 68.9102C36.9801 67.3531 37.4401 66.172 38.0899 66.8265C38.2872 67.0251 38.328 67.215 38.3583 68.075C38.3903 68.9845 38.3701 69.1147 38.163 69.3366C37.9165 69.6009 37.7572 69.6377 37.5193 69.4857ZM55.7801 68.663C55.5961 68.5274 55.5564 68.3501 55.5259 67.5312C55.4809 66.3228 55.6001 65.9554 56.0369 65.9554C56.547 65.9554 56.609 66.1346 56.5749 67.5106C56.5442 68.7513 56.5421 68.7596 56.2711 68.7916C56.1211 68.8092 55.9001 68.7514 55.7801 68.663ZM75.4301 65.4164C75.6756 65.304 76.6908 64.7361 77.6861 64.1543C78.6812 63.5725 79.5512 63.0965 79.6192 63.0965C79.9122 63.0965 79.506 62.837 77.6301 61.8264C76.5346 61.236 75.3916 60.5953 75.09 60.4025L74.5418 60.0521L74.1394 60.3087C73.9181 60.4499 72.7655 61.0921 71.5781 61.7356C70.3905 62.3793 69.3847 62.9364 69.3428 62.9738C69.268 63.0404 73.01 65.0628 73.8825 65.4272C74.4647 65.6702 74.8817 65.6673 75.4301 65.4164ZM37.3462 64.3885C37.3232 64.3129 37.2767 63.8305 37.243 63.3164C37.1716 62.2261 37.2959 61.8507 37.746 61.7979C38.175 61.7474 38.3771 62.2145 38.3771 63.2559C38.3771 63.9395 38.3386 64.1249 38.1589 64.306C37.9162 64.5506 37.4115 64.6018 37.3462 64.3885ZM55.6786 62.775C55.4797 62.5535 53.4228 61.4112 50.1065 59.6804C49.0263 59.1168 47.6024 58.3264 46.9423 57.9241C45.2847 56.914 42.5644 55.4579 38.3226 53.3102C31.9445 50.0807 28.4943 48.2609 28.247 47.9956L28.0054 47.7364L28.0002 31.2531C27.9973 22.1873 28.0277 14.6956 28.0675 14.6049C28.1073 14.5142 28.688 14.1666 29.3578 13.8325C30.0277 13.4982 33.1044 11.8965 36.1949 10.2731C39.2855 8.64968 42.6979 6.87682 43.7781 6.3333C44.8583 5.7901 45.8915 5.23218 46.0742 5.09374C46.2568 4.95519 47.9017 4.08828 49.7294 3.16716C51.557 2.24593 53.6591 1.14635 54.4004 0.72345C55.6017 0.0384099 55.7957 -0.0389997 56.1818 0.0131205C56.4471 0.0490768 57.5323 0.572038 58.98 1.36176C60.2806 2.07121 62.9406 3.4911 64.8909 4.51712C70.4695 7.45157 74.584 9.64381 78.4206 11.7255C82.9945 14.2076 83.3392 14.3838 83.6199 14.3844C83.7807 14.3848 83.8839 14.4803 83.9472 14.6874C83.9981 14.8536 84.0152 19.9625 83.9852 26.0402L83.9307 37.0907L82.4577 37.8963C75.9449 41.4582 74.9327 41.9846 74.5954 41.9846C74.343 41.9846 73.9384 41.7842 73.1937 41.29C72.6179 40.908 71.4205 40.1782 70.5328 39.6681C69.6452 39.1581 68.1599 38.2846 67.2322 37.727L65.5456 36.7132V46.9838C65.5456 53.8238 65.5077 57.3549 65.4321 57.5551C65.2846 57.9464 65.1698 58.0291 63.7453 58.7693C63.0851 59.1124 61.5139 59.9696 60.2537 60.6742C58.9935 61.3788 57.8013 62.021 57.6042 62.101C57.4071 62.1811 56.9716 62.4131 56.6363 62.6166C56.3009 62.8201 55.991 62.9866 55.9476 62.9866C55.9042 62.9866 55.7831 62.8913 55.6786 62.775ZM61.3176 58.8056L64.4545 57.1232V54.5199C64.4545 53.088 64.4869 50.9427 64.5264 49.7527L64.5983 47.5892L63.8444 48.0176C62.4392 48.8161 57.5167 51.4381 57.0573 51.6326L56.6007 51.826L56.5996 56.5894L56.5985 61.3528L57.3896 60.9204C57.8246 60.6827 59.5923 59.7311 61.3176 58.8058V58.8056ZM55.5074 56.3951V51.673L54.389 51.0741C53.025 50.3431 51.6611 49.6118 50.2974 48.8802L47.3242 47.2853L47.3263 51.9747L47.3284 56.664L48.1718 57.2402C48.896 57.7349 55.1942 61.0965 55.4256 61.1119C55.4707 61.1149 55.5074 58.9923 55.5074 56.3951ZM37.3965 59.4147C37.1958 59.1711 37.1315 57.4971 37.3098 57.1589C37.5078 56.7831 37.9724 56.7355 38.2029 57.067C38.4061 57.3595 38.4502 59.0148 38.2642 59.3652C38.1278 59.6219 37.5923 59.6525 37.3965 59.4147ZM74.1276 57.0677C73.9865 56.9105 73.9471 56.6402 73.9471 55.8277C73.9471 54.6851 74.0944 54.2999 74.5316 54.2999C74.9664 54.2999 75.0382 54.4968 75.0382 55.6884C75.0382 56.7724 75.0278 56.8213 74.7507 57.0409C74.3994 57.3193 74.3552 57.3213 74.1276 57.0677ZM46.2705 55.0422C46.3093 54.3617 46.3412 52.2217 46.3412 50.2865V46.7678L45.5507 46.3571C45.1159 46.1313 43.4098 45.2262 41.7595 44.346C40.1092 43.4658 38.6449 42.7164 38.5054 42.681L38.2517 42.6164L38.2811 47.2761L38.3104 51.9358L42.1899 54.1053C44.3236 55.2984 46.0987 56.2757 46.1345 56.277C46.1704 56.2781 46.2316 55.7225 46.2705 55.0422ZM74.2249 52.0609C73.9643 51.7983 73.9471 51.7127 73.9471 50.6842C73.9471 49.8338 73.9856 49.5486 74.1185 49.4146C74.3546 49.1768 74.5226 49.1978 74.8049 49.5006C75.0265 49.7383 75.0436 49.8514 75.0149 50.8895C74.9866 51.9141 74.9611 52.0346 74.7431 52.1802C74.5227 52.3274 74.4794 52.3174 74.2249 52.0609ZM37.2024 46.7953C37.1804 43.1703 37.1414 42.0187 37.0388 41.9521C36.8358 41.8202 32.8783 39.6544 30.9576 38.6241L29.2664 37.7168L29.1835 40.0431C29.1378 41.3227 29.1132 43.4175 29.1289 44.6984C29.1549 46.8309 29.1757 47.0519 29.3755 47.3198C29.5187 47.5119 30.7757 48.2237 33.0307 49.3895C34.921 50.367 36.615 51.2511 36.795 51.3545C36.975 51.4576 37.1469 51.5442 37.1769 51.5466C37.2069 51.5491 37.2184 49.411 37.2024 46.7953ZM63.9907 46.6761L64.6727 46.3358V41.4544C64.6727 36.8508 64.6618 36.5773 64.4817 36.6468C63.9655 36.8458 58.1827 39.9187 57.6357 40.2847C56.5656 41.0005 56.5994 40.8513 56.599 44.8539C56.5988 46.7646 56.63 48.8451 56.6682 49.4772L56.7381 50.6264L60.0234 48.8214C61.8304 47.8286 63.6156 46.8633 63.9907 46.6761ZM55.5327 45.5883C55.4774 40.7036 55.4755 40.6697 55.2468 40.5988C55.1201 40.5596 53.9117 39.9216 52.5614 39.1812C48.9234 37.1863 47.6168 36.4829 47.6063 36.514C47.6012 36.5292 47.6129 38.7065 47.6324 41.3524L47.6677 46.163L48.3962 46.5872C48.7967 46.8207 50.1065 47.5327 51.3067 48.1694C52.5069 48.8062 53.9553 49.5966 54.5254 49.9258C55.0955 50.255 55.5679 50.5203 55.5751 50.5154C55.5824 50.5104 55.5633 48.2931 55.5327 45.5883ZM74.1276 47.0615C73.8768 46.7822 73.869 45.0048 74.1169 44.6481C74.3137 44.365 74.6686 44.3311 74.931 44.5705C75.0867 44.7124 75.1059 44.9042 75.0601 45.8621C75.0192 46.7192 74.9647 47.0188 74.8313 47.1212C74.5806 47.3137 74.3355 47.293 74.1276 47.0615ZM46.4475 45.1807C46.568 44.9535 46.609 41.0308 46.4939 40.7286C46.4123 40.5142 44.412 39.3689 43.9597 39.2778C43.5528 39.1958 43.0605 39.4208 40.7325 40.7532L38.9963 41.7468L39.4092 41.9207C39.6364 42.0164 39.8334 42.0946 39.847 42.0946C39.8607 42.0946 40.3335 42.3489 40.8976 42.6598C43.7387 44.2255 45.9799 45.3922 46.1474 45.3927C46.2503 45.393 46.3853 45.2977 46.4475 45.1807ZM37.2598 36.0409L37.2315 31.1969L36.795 30.9619C36.555 30.8325 35.8676 30.4451 35.2675 30.1006C34.1681 29.4695 31.0594 27.7984 29.7716 27.146L29.0766 26.7939L29.1223 31.3929C29.1593 35.1219 29.1978 36.0529 29.3263 36.3141C29.4551 36.5759 30.0662 36.9474 32.5943 38.3008C34.3046 39.2163 36.0231 40.1689 36.4131 40.4175C36.8032 40.6662 37.1597 40.8732 37.2053 40.8773C37.251 40.8816 37.2755 38.7052 37.2598 36.0409ZM38.7126 40.5492C38.8857 40.4251 39.3597 40.1721 39.766 39.9868C40.1723 39.8015 41.0817 39.3307 41.7868 38.9403L43.0689 38.2306V34.1985L40.7212 32.9235C39.4301 32.2223 38.3522 31.6485 38.3261 31.6485C38.2999 31.6485 38.2883 33.7018 38.3005 36.2113C38.3125 38.7207 38.3396 40.7742 38.3603 40.7745C38.381 40.7749 38.5396 40.6735 38.7126 40.5493V40.5492ZM76.2987 40.0212C77.588 39.3908 82.4828 36.7096 82.7032 36.513C82.8795 36.3558 82.8941 35.978 82.8941 31.5884V26.8341L81.5575 27.5521C80.4919 28.1263 79.428 28.704 78.366 29.285C77.3458 29.8433 76.1429 30.5011 75.6928 30.7469L74.8745 31.1936L74.9041 35.8195L74.9338 40.4452H75.1826C75.3196 40.4452 75.8218 40.2544 76.2987 40.0212ZM73.812 31.5858C73.7543 31.5276 69.9463 33.4736 69.4721 33.8035C69.2028 33.9909 68.3116 34.5087 67.4916 34.9542C66.238 35.6354 66.0295 35.7842 66.1822 35.8889C66.4188 36.0511 72.2768 39.3253 73.1287 39.7715L73.7834 40.1143L73.812 35.8645C73.8277 33.527 73.8277 31.6016 73.812 31.5858ZM55.4481 32.7739L55.3734 29.8858L54.2129 29.2253C53.0073 28.539 47.6347 25.7907 47.6047 25.845C47.5952 25.8619 47.6069 27.921 47.6306 30.4204L47.6737 34.9652L47.9857 35.3232C48.1627 35.5263 48.8542 35.9722 49.5839 36.3537C50.2914 36.7236 51.9013 37.5934 53.1616 38.2869L55.4529 39.5477L55.4878 37.6049C55.507 36.5363 55.4891 34.3624 55.4481 32.7739ZM56.8649 39.3971C56.9814 39.3083 57.1502 39.2357 57.2401 39.2357C57.5177 39.2357 63.8116 35.7928 64.1986 35.4291L64.5636 35.0863V30.2715C64.5636 25.6936 64.5542 25.4653 64.3726 25.6294C64.0859 25.8887 58.9254 28.8127 58.2352 29.107C57.4094 29.4591 56.9477 29.7557 56.7881 30.0364C56.6892 30.2105 56.6386 31.5171 56.5985 34.9199C56.5685 37.4751 56.5685 39.5641 56.5985 39.5621C56.6285 39.5602 56.7484 39.4858 56.8649 39.3971ZM46.4143 38.0536C46.3773 37.5244 46.346 36.8182 46.3446 36.4843L46.3422 35.8771L45.2238 35.3165L44.1054 34.7559L44.125 36.3505C44.136 37.2274 44.1919 37.9924 44.2493 38.0502C44.3999 38.2019 46.1501 39.0131 46.3301 39.0145C46.4529 39.0155 46.4688 38.8342 46.4143 38.0536ZM46.4758 30.0267L46.4459 25.216L45.9848 24.9565C45.7313 24.8139 44.7382 24.2995 43.7781 23.8136C42.8179 23.3277 41.6097 22.6939 41.0933 22.4051C40.1085 21.8546 38.4361 20.9827 38.3645 20.9825C38.3414 20.9825 38.3534 23.093 38.3911 25.6726L38.4596 30.3628L38.7184 30.5601C39.063 30.8227 40.1942 31.4529 43.3416 33.1361C44.7819 33.9063 46.0572 34.6042 46.1756 34.6869C46.2938 34.7696 46.4167 34.8373 46.4483 34.8373C46.48 34.8373 46.4923 32.6726 46.4758 30.0267ZM69.2024 32.7472C70.8201 31.8288 72.4392 30.9424 72.8003 30.7773C73.9268 30.2626 73.838 30.677 73.838 25.9382C73.838 23.6528 73.8077 21.5605 73.7707 21.2887L73.7035 20.7945L72.7615 21.3112C72.2433 21.5953 71.353 22.0991 70.7829 22.4307C70.2128 22.7624 68.8256 23.5234 67.7005 24.1219L65.6547 25.2101V34.7329L65.958 34.5749C66.1247 34.488 67.5847 33.6656 69.2024 32.7472ZM37.286 25.2371V20.4751L36.3859 19.9979C35.8907 19.7355 35.0438 19.2634 34.5037 18.9489C33.9636 18.6344 33.0798 18.1394 32.5397 17.849C30.6048 16.8085 30.1323 16.546 29.6483 16.2424L29.1573 15.9345L29.1289 20.6175C29.1078 24.0851 29.1337 25.341 29.2289 25.4566C29.2995 25.5423 29.6806 25.8023 30.0756 26.0341C31.6288 26.9456 37.113 29.9992 37.197 29.9992C37.246 29.9992 37.286 27.8563 37.286 25.2372V25.2371ZM76.2486 29.2515C77.119 28.7702 77.9885 28.2873 78.857 27.8028C79.6285 27.372 80.4003 26.9418 81.1723 26.5121C81.7558 26.1876 82.3817 25.7959 82.5635 25.6417L82.8941 25.3615V21.7046C82.8941 19.6932 82.8622 17.5952 82.8233 17.0424L82.7525 16.0369L82.4141 16.2467C82.228 16.362 80.971 17.0146 79.6208 17.6968C78.2706 18.3791 76.6636 19.2787 76.0496 19.6959L74.9335 20.4546L74.9041 25.227C74.8877 27.8517 74.8791 29.9993 74.8848 29.9993C74.8904 29.9993 75.5042 29.6628 76.2486 29.2515ZM58.2766 27.7846C59.5875 27.0837 60.8975 26.3812 62.2067 25.677L64.0505 24.6846L62.8614 24.0879C62.2073 23.7598 60.5394 22.8773 59.1549 22.127C57.5543 21.2596 56.5199 20.7627 56.3145 20.7627C55.9294 20.7627 53.0385 22.1167 51.579 22.9808C51.0091 23.3181 50.0397 23.8482 49.4245 24.1586C48.8095 24.4692 48.3061 24.7644 48.3061 24.8148C48.3061 24.8651 48.7141 25.0895 49.2126 25.3134C49.7113 25.5373 50.6809 26.0471 51.3676 26.4463C52.9855 27.387 55.8465 28.8855 56.0399 28.8934C56.1227 28.8967 57.1292 28.3979 58.2766 27.7846ZM50.2701 22.4737C51.8004 21.7054 53.1997 20.9639 53.3798 20.8261C53.5598 20.6885 53.9526 20.4666 54.2527 20.3332L54.7982 20.0907L54.5254 19.8787C54.3754 19.7622 54.1545 19.6343 54.0344 19.5947C53.7824 19.5115 51.5409 18.3114 49.0037 16.9013C48.037 16.364 47.1278 15.9245 46.983 15.9245C46.6189 15.9245 44.1603 17.0995 41.8272 18.3887C40.7542 18.9814 39.6306 19.5813 39.3303 19.7215L38.7842 19.9765L40.1354 20.6578C40.8787 21.0325 42.6354 21.9325 44.0394 22.6579C46.3449 23.8489 46.6351 23.9714 47.0399 23.9237C47.3171 23.891 48.5485 23.3383 50.2701 22.4737ZM67.7644 22.7362C68.9745 22.0679 70.6852 21.1649 71.5659 20.7295C72.4468 20.2941 73.1681 19.9133 73.1689 19.883C73.1698 19.8528 72.8664 19.676 72.4949 19.4901C72.1234 19.3043 70.5183 18.4827 68.928 17.6644C66.915 16.6286 65.8797 16.1556 65.5203 16.1078C65.0262 16.0422 64.8972 16.0925 62.5197 17.2799C61.1535 17.9622 59.8385 18.6471 59.5975 18.8019C59.3566 18.9566 58.9086 19.2115 58.6019 19.3682C57.9219 19.7153 57.8157 19.9339 58.1502 20.2966C58.287 20.4448 59.479 21.1075 60.7993 21.7693C62.1195 22.4312 63.6063 23.1929 64.1031 23.462C64.6001 23.7312 65.1322 23.9515 65.2856 23.9515C65.4389 23.9515 66.5543 23.4046 67.7644 22.7362ZM45.2476 15.3998C45.3885 15.2846 45.4712 15.137 45.4312 15.0717C45.3585 14.9533 42.3911 13.2855 42.2528 13.2855C42.2127 13.2855 41.2629 12.7959 40.1421 12.1975C39.0213 11.5991 37.919 11.0506 37.6923 10.9785C37.2818 10.848 37.2689 10.8537 34.1858 12.5242C31.2769 14.1003 30.0847 14.826 30.0847 15.0207C30.0847 15.1468 31.9011 16.2038 34.935 17.8432L37.6576 19.3144L41.3244 17.4616C43.3411 16.4428 45.1065 15.5148 45.2476 15.3997V15.3998ZM57.269 18.8099C59.4744 17.6742 63.7959 15.2168 63.7208 15.1412C63.4273 14.8454 56.4158 11.0864 56.1574 11.0864C56.0341 11.0864 55.1379 11.5256 54.1656 12.0626C53.1933 12.5996 51.524 13.4958 50.4561 14.054C49.3881 14.6124 48.5311 15.1204 48.5519 15.1831C48.5983 15.3236 50.2769 16.2874 52.5425 17.4743C53.483 17.9671 54.4 18.4581 54.58 18.5653C55.9155 19.3607 56.157 19.3827 57.269 18.8099ZM76.8187 17.9026C78.0899 17.2368 79.7416 16.3466 80.4892 15.9248C81.2369 15.5029 81.8998 15.1391 81.9622 15.1163C82.0247 15.0936 82.0512 15.0516 82.0212 15.023C81.8545 14.8642 79.182 13.3395 78.2105 12.8489C77.5849 12.533 76.5495 11.9577 75.9095 11.5705C75.2697 11.1832 74.6742 10.8664 74.5861 10.8664C74.4982 10.8664 73.9906 11.1449 73.4584 11.4853C72.926 11.8256 71.2858 12.716 69.8134 13.4641C68.341 14.2121 67.0712 14.8898 66.9916 14.97C66.912 15.0502 66.8749 15.1893 66.9091 15.2793C67.0027 15.525 67.9433 16.0628 69.6409 16.8411C70.479 17.2253 71.8387 17.8938 72.6624 18.3264C73.4862 18.7592 74.2384 19.1133 74.334 19.1133C74.4294 19.1133 75.5476 18.5684 76.8187 17.9026ZM51.1463 12.4027C53.3048 11.3123 55.0709 10.3722 55.0709 10.3135C55.0709 10.2547 54.9824 10.2067 54.8742 10.2067C54.5679 10.2067 53.16 9.48338 50.5198 7.96948C49.187 7.20527 47.8245 6.44546 47.4923 6.28129L46.888 5.98264L44.842 7.04033C43.4876 7.74014 42.1327 8.43886 40.7772 9.13647L38.7583 10.175L39.3588 10.4985C43.536 12.7491 45.223 13.6714 45.7574 13.9961C46.1889 14.2583 46.5307 14.3847 46.8092 14.3848C47.1263 14.385 48.1283 13.9271 51.1463 12.4027ZM67.6187 13.2766C68.6689 12.7444 69.9805 12.0159 70.5333 11.6578C71.0863 11.2998 71.9087 10.8392 72.3609 10.6342C72.8131 10.4294 73.1823 10.2369 73.1813 10.2067C73.1803 10.1765 72.8981 10.0319 72.5539 9.88561C71.9587 9.63227 69.515 8.29012 67.1061 6.89332C66.2438 6.39334 65.8929 6.24819 65.5456 6.24819C65.1793 6.24819 64.4358 6.59214 61.4754 8.1309C59.4833 9.16649 57.7395 10.0853 57.6003 10.1728C57.3538 10.3276 57.3754 10.3466 58.4186 10.8922C59.0079 11.2004 60.3002 11.9234 61.2904 12.4988C64.0294 14.0906 64.0339 14.0929 64.5612 14.2317C64.8325 14.3032 65.202 14.3352 65.382 14.303C65.562 14.2707 66.5685 13.8088 67.6187 13.2766ZM57.0164 9.25665C57.7917 8.94745 60.6224 7.49611 61.8904 6.75774C62.3105 6.51308 63.0077 6.13736 63.4397 5.92272L64.2256 5.53247L61.3122 3.93918C57.3028 1.74661 56.5358 1.36583 56.1295 1.36715C55.8985 1.36781 54.5792 1.9706 52.2341 3.14693C50.2838 4.12523 48.5486 5.01941 48.3782 5.13388L48.0682 5.34203L50.6694 6.69451C52.1001 7.43849 53.8353 8.38446 54.5254 8.79669C55.2156 9.20893 55.8946 9.54628 56.0344 9.54661C56.1741 9.54672 56.616 9.41631 57.0164 9.25665Z" fill="currentcolor"/>
</svg>
