<?xml version="1.0" standalone="no"?>
<!DOCTYPE svg PUBLIC "-//W3C//DTD SVG 20010904//EN"
 "http://www.w3.org/TR/2001/REC-SVG-20010904/DTD/svg10.dtd">
<svg version="1.0" xmlns="http://www.w3.org/2000/svg"
 width="300.000000pt" height="294.000000pt" viewBox="0 0 300.000000 294.000000"
 preserveAspectRatio="xMidYMid meet">
<g transform="translate(0.000000,294.000000) scale(0.100000,-0.100000)"
fill="currentcolor" stroke="none">
<path d="M2105 2885 c-181 -7 -566 -18 -855 -24 -664 -15 -1011 -28 -1041 -40
-29 -11 -145 -115 -160 -144 -13 -22 -14 -2055 -2 -2407 6 -189 7 -195 31
-219 l24 -24 317 6 c456 9 1040 25 1555 42 247 8 536 15 643 15 l193 0 63 57
c34 32 72 67 85 79 23 20 24 27 25 180 4 357 -4 2431 -9 2451 -4 12 -19 26
-36 32 -40 14 -401 12 -833 -4z m818 -45 c5 -5 11 -91 14 -191 l6 -184 -229
-3 c-126 -1 -461 -9 -744 -17 -283 -8 -776 -20 -1095 -26 -319 -5 -597 -13
-617 -16 l-38 -5 0 185 c0 136 3 187 12 195 15 11 172 17 993 37 330 8 742 19
915 25 522 18 764 18 783 0z m-2788 -170 c-27 -27 -51 -47 -54 -45 -3 3 17 28
44 55 27 27 51 47 54 45 3 -3 -17 -28 -44 -55z m45 -7 c0 -3 -22 -30 -50 -59
-60 -64 -66 -52 -8 17 37 45 58 60 58 42z m-2 -62 c-7 -19 -98 -112 -98 -101
0 14 80 107 93 109 5 1 7 -3 5 -8z m-43 -111 c-27 -27 -51 -47 -54 -45 -3 3
17 28 44 55 27 27 51 47 54 45 3 -3 -17 -28 -44 -55z m45 -7 c-1 -15 -100
-118 -100 -104 0 8 19 35 43 61 40 46 58 59 57 43z m-40 -108 c-24 -25 -49
-45 -54 -45 -6 0 12 22 39 50 27 27 51 47 54 45 3 -3 -15 -26 -39 -50z m2795
-1030 c-1 -591 -3 -1077 -6 -1079 -7 -7 -210 -14 -789 -27 -261 -5 -682 -16
-935 -24 -990 -31 -919 -31 -942 -8 -19 19 -21 37 -27 284 -3 145 -8 624 -11
1065 l-6 801 98 7 c54 4 375 11 713 16 338 5 826 16 1085 25 501 16 767 22
800 17 20 -3 20 -7 20 -1077z m-2755 1007 c0 -4 -22 -30 -50 -57 -61 -60 -66
-50 -7 15 41 47 57 58 57 42z m-46 -113 c-26 -27 -50 -47 -52 -44 -3 2 17 30
44 61 27 32 50 51 52 44 2 -6 -17 -34 -44 -61z m0 -60 c-26 -27 -50 -47 -52
-44 -2 2 18 29 44 59 27 30 51 51 53 45 2 -6 -18 -33 -45 -60z m46 -7 c0 -4
-22 -30 -50 -57 -61 -60 -65 -51 -7 16 40 46 57 59 57 41z m0 -54 c-1 -16 -90
-111 -97 -104 -4 4 87 115 95 116 1 0 2 -6 2 -12z m0 -60 c-1 -16 -90 -111
-97 -104 -5 4 85 113 95 115 1 1 2 -5 2 -11z m-41 -116 c-24 -25 -45 -49 -46
-51 -2 -2 -6 -1 -10 3 -4 3 15 29 42 56 62 63 74 56 14 -8z m0 -58 c-61 -62
-70 -55 -12 11 26 30 50 50 52 44 2 -6 -16 -31 -40 -55z m0 -55 c-24 -29 -45
-46 -47 -39 -4 12 78 103 86 95 3 -2 -15 -27 -39 -56z m-1 -68 c-46 -52 -61
-62 -51 -33 9 25 87 104 91 92 2 -6 -16 -33 -40 -59z m-2 -71 c-59 -63 -62
-36 -3 30 27 31 43 42 45 33 2 -8 -17 -36 -42 -63z m0 -70 c-59 -63 -62 -36
-3 30 27 31 43 42 45 33 2 -8 -17 -36 -42 -63z m54 0 c0 -17 -94 -113 -98
-101 -4 11 77 110 91 111 4 0 7 -5 7 -10z m0 -66 c0 -13 -95 -115 -98 -105 -2
6 16 33 40 61 39 46 58 60 58 44z m0 -72 c0 -4 -22 -30 -50 -57 -27 -27 -50
-43 -50 -35 0 8 19 34 42 57 41 41 58 52 58 35z m-2 -61 c-7 -18 -98 -112 -98
-101 0 14 81 110 93 110 5 0 7 -4 5 -9z m2 -63 c0 -6 -22 -35 -50 -64 -62 -65
-68 -41 -7 26 43 49 57 58 57 38z m-49 -133 c-32 -34 -51 -48 -51 -37 0 20 93
117 98 102 2 -6 -19 -35 -47 -65z m4 -70 c-51 -59 -55 -62 -55 -41 0 19 93
121 98 107 2 -6 -18 -36 -43 -66z m-4 -80 c-64 -68 -67 -42 -3 31 33 40 48 51
50 39 2 -9 -19 -40 -47 -70z m2 -70 c-34 -38 -49 -50 -51 -39 -4 18 91 121 96
104 2 -5 -18 -34 -45 -65z m-2 -80 c-66 -70 -69 -40 -4 35 37 41 49 50 51 36
2 -10 -17 -39 -47 -71z m49 -5 c0 -6 -22 -38 -50 -71 -40 -48 -50 -56 -50 -38
0 12 19 43 43 69 43 49 57 58 57 40z m-47 -144 c-64 -70 -69 -44 -6 30 33 38
49 51 51 40 2 -9 -18 -40 -45 -70z m-2 -81 c-65 -68 -67 -42 -3 32 35 42 48
52 50 39 2 -10 -17 -40 -47 -71z m2 -72 c-35 -42 -49 -52 -51 -40 -4 21 91
130 96 110 2 -8 -18 -39 -45 -70z m0 -87 c-38 -42 -49 -49 -51 -34 -2 11 16
39 45 72 38 42 49 49 51 34 2 -11 -16 -39 -45 -72z m-2 -81 c-66 -70 -69 -40
-4 35 37 41 49 50 51 36 2 -10 -17 -39 -47 -71z m49 -7 c-1 -13 -23 -47 -51
-78 -39 -42 -50 -50 -47 -33 2 17 84 130 96 133 1 0 2 -10 2 -22z m10 -74 c0
-14 -105 -125 -108 -115 -4 13 84 121 99 121 5 0 9 -3 9 -6z m-51 -135 c-30
-33 -55 -56 -57 -50 -2 6 20 39 49 72 29 34 55 57 57 50 2 -6 -20 -38 -49 -72z
m0 -65 c-70 -71 -76 -53 -7 21 29 31 54 51 56 45 3 -7 -20 -36 -49 -66z m2613
-6 c-23 -23 -45 -39 -49 -34 -4 4 12 26 35 48 56 52 69 40 14 -14z m53 2 c-21
-22 -41 -37 -44 -35 -2 3 13 23 34 45 21 22 41 37 44 35 2 -3 -13 -23 -34 -45z
m-395 35 c0 -3 -14 -21 -32 -40 -45 -50 -68 -46 -28 5 27 34 60 53 60 35z m60
-2 c0 -14 -64 -73 -79 -73 -9 0 0 15 24 40 37 38 55 49 55 33z m60 -1 c0 -13
-69 -76 -75 -70 -4 3 8 22 25 42 31 34 50 45 50 28z m70 3 c0 -13 -65 -75 -78
-75 -18 0 47 78 66 79 6 1 12 -1 12 -4z m33 -37 c-23 -23 -46 -39 -49 -35 -10
10 56 77 75 77 10 0 0 -16 -26 -42z m60 0 c-23 -23 -46 -39 -49 -35 -10 10 56
77 75 77 10 0 0 -16 -26 -42z m-714 -9 c-31 -39 -55 -57 -64 -47 -8 8 66 88
82 88 10 0 5 -12 -18 -41z m91 34 c0 -13 -64 -73 -78 -73 -9 0 -2 14 19 39 31
36 59 52 59 34z m39 -32 c-31 -36 -59 -52 -59 -34 0 13 64 73 78 73 9 0 2 -14
-19 -39z m80 22 c-32 -42 -53 -63 -66 -63 -9 0 -2 15 18 40 18 22 39 40 47 40
12 0 12 -3 1 -17z m44 -25 c-23 -23 -46 -39 -49 -35 -10 10 56 77 75 77 10 0
0 -16 -26 -42z m69 1 c-24 -23 -46 -38 -49 -35 -10 9 58 76 76 76 10 0 0 -16
-27 -41z m-2102 23 c0 -4 -22 -30 -50 -57 -61 -60 -66 -50 -7 15 41 47 57 58
57 42z m1430 1 c-1 -13 -71 -85 -77 -79 -3 2 10 23 28 45 32 38 49 50 49 34z
m19 -42 c-32 -38 -49 -50 -49 -34 0 10 73 83 78 78 2 -2 -11 -22 -29 -44z m70
12 c-39 -43 -52 -54 -57 -48 -9 8 60 85 76 85 11 0 6 -11 -19 -37z m60 -3
c-18 -22 -39 -40 -47 -40 -9 0 -3 14 18 40 17 22 38 40 46 40 10 0 5 -13 -17
-40z m61 0 c-17 -22 -38 -40 -46 -40 -10 0 -5 13 17 40 18 22 39 40 47 40 9 0
3 -14 -18 -40z m69 1 c-30 -35 -59 -52 -59 -35 0 16 57 73 74 73 15 1 13 -6
-15 -38z m-579 22 c0 -13 -74 -83 -88 -83 -8 0 2 18 24 45 32 40 64 58 64 38z
m60 -1 c0 -13 -79 -86 -86 -79 -9 8 57 85 74 86 6 1 12 -3 12 -7z m49 -9 c-32
-43 -53 -63 -67 -63 -18 0 47 78 67 79 11 1 11 -2 0 -16z m46 -23 c-21 -22
-45 -40 -53 -40 -22 0 50 78 73 79 15 1 12 -7 -20 -39z m64 1 c-31 -36 -59
-52 -59 -34 0 13 64 73 78 73 9 0 2 -14 -19 -39z m-559 22 c-1 -14 -61 -74
-71 -71 -11 4 48 78 62 78 5 0 9 -3 9 -7z m60 0 c-1 -17 -59 -75 -71 -71 -7 2
0 17 21 41 30 35 51 47 50 30z m70 2 c0 -2 -14 -20 -31 -40 -44 -50 -69 -46
-28 5 27 34 59 53 59 35z m38 -35 c-18 -22 -39 -40 -45 -40 -20 0 -15 12 19
47 46 47 66 42 26 -7z m71 1 c-19 -22 -42 -40 -52 -40 -15 -1 -12 6 15 39 18
22 41 40 52 40 15 0 13 -6 -15 -39z m-1039 -16 c-24 -24 -46 -42 -49 -40 -6 7
70 85 83 85 6 0 -10 -20 -34 -45z m388 -5 c-32 -38 -48 -49 -48 -32 0 15 62
82 71 76 5 -3 -6 -23 -23 -44z m92 43 c-1 -14 -61 -74 -71 -71 -11 4 48 78 62
78 5 0 9 -3 9 -7z m38 -33 c-44 -53 -70 -53 -28 0 17 22 38 40 46 40 10 0 4
-13 -18 -40z m62 0 c-17 -22 -38 -40 -46 -40 -10 0 -5 13 17 40 18 22 39 40
47 40 9 0 3 -14 -18 -40z m79 23 c-32 -43 -53 -63 -67 -63 -18 0 47 78 67 79
11 1 11 -2 0 -16z m44 -25 c-23 -23 -46 -39 -49 -35 -10 10 56 77 75 77 10 0
0 -16 -26 -42z m-649 -3 c-26 -35 -64 -63 -64 -48 0 10 72 83 83 83 4 0 -4
-16 -19 -35z m46 -5 c-32 -40 -50 -56 -50 -45 0 11 63 85 73 85 5 0 -6 -18
-23 -40z m80 34 c0 -13 -56 -74 -68 -74 -7 0 1 17 20 40 30 36 48 49 48 34z
m51 -11 c-14 -27 -60 -67 -68 -60 -4 4 9 23 27 42 36 37 57 46 41 18z m38 -23
c-29 -36 -49 -50 -49 -34 0 13 56 74 68 74 7 0 -1 -17 -19 -40z m59 0 c-30
-36 -48 -49 -48 -34 0 14 54 74 67 74 9 0 3 -14 -19 -40z"/>
<path d="M2015 2763 c-38 -2 -224 -10 -412 -18 -187 -8 -400 -15 -471 -15 -72
0 -142 -4 -156 -10 -25 -9 -26 -13 -26 -90 0 -136 -47 -124 449 -116 663 10
1144 26 1158 38 17 14 18 189 1 206 -11 11 -329 14 -543 5z m515 -107 l0 -73
-132 -7 c-73 -3 -362 -11 -643 -16 -280 -5 -567 -12 -637 -16 l-126 -6 -4 76
-3 76 89 0 c49 0 256 7 460 15 522 21 507 21 764 23 l232 2 0 -74z"/>
<path d="M2785 2718 l-27 -32 -20 27 c-20 27 -58 37 -58 15 0 -7 12 -25 27
-40 l27 -28 -31 -33 c-29 -30 -34 -57 -10 -57 6 0 23 15 38 33 l27 32 30 -29
c30 -28 52 -28 52 -1 0 7 -12 22 -27 33 l-28 21 29 30 c17 18 26 36 23 45 -9
24 -22 20 -52 -16z"/>
<path d="M390 2662 c-31 -15 -35 -22 -38 -59 -4 -53 22 -83 72 -83 78 0 110
92 49 140 -31 24 -39 25 -83 2z m72 -47 c14 -32 -5 -57 -41 -53 -20 2 -27 9
-29 32 -6 48 50 65 70 21z"/>
<path d="M582 2657 c-46 -49 -12 -127 54 -127 63 0 98 86 54 130 -28 28 -81
26 -108 -3z m86 -46 c5 -32 -23 -54 -49 -40 -19 10 -26 49 -12 63 4 4 19 6 33
4 18 -2 26 -10 28 -27z"/>
<path d="M785 2660 c-10 -11 -18 -34 -18 -50 0 -66 71 -93 118 -45 29 28 32
61 9 93 -20 29 -83 31 -109 2z m78 -32 c8 -12 7 -21 -2 -32 -30 -36 -72 -6
-50 35 12 23 37 22 52 -3z"/>
<path d="M2100 2228 c-168 -4 -329 -11 -358 -14 l-53 -6 3 -213 c2 -140 7
-218 14 -225 17 -17 991 5 1012 22 12 11 14 43 10 215 -4 141 -9 207 -18 218
-14 17 -93 18 -610 3z m580 -213 c3 -99 3 -183 0 -187 -6 -7 -932 -29 -940
-22 -2 3 -6 86 -8 184 l-4 179 23 5 c25 6 734 24 854 22 l70 -1 5 -180z"/>
<path d="M2083 2083 c-217 -3 -233 -5 -243 -22 -5 -11 -7 -27 -3 -37 5 -15 21
-16 167 -10 89 3 250 9 359 12 l197 7 0 28 0 29 -122 -2 c-68 -2 -228 -4 -355
-5z"/>
<path d="M1987 1950 c-146 -7 -174 -13 -158 -38 6 -10 48 -11 192 -5 175 8
184 9 184 28 0 24 -11 25 -218 15z"/>
<path d="M2303 1953 c-7 -2 -13 -11 -13 -19 0 -10 13 -14 43 -14 48 0 58 5 50
26 -5 14 -54 18 -80 7z"/>
<path d="M665 2199 c-115 -4 -220 -11 -232 -14 l-23 -5 0 -469 c0 -400 2 -470
15 -481 11 -9 128 -10 542 -1 290 7 538 14 551 17 l23 5 -2 457 c0 251 -5 467
-10 479 l-9 23 -322 -2 c-178 0 -417 -5 -533 -9z m825 -226 c0 -109 3 -235 7
-280 l6 -83 -65 0 -65 0 -6 66 c-8 78 -18 94 -61 94 -27 0 -35 6 -50 36 -15
34 -16 38 -1 61 16 24 16 26 -25 63 -23 21 -55 44 -71 50 -26 11 -32 10 -52
-8 -31 -29 -63 -19 -77 24 -12 34 -12 34 -73 33 -93 -1 -111 -9 -115 -46 -4
-43 -47 -61 -90 -39 l-30 16 -61 -67 c-73 -79 -84 -108 -51 -133 29 -22 21
-50 -14 -50 -34 0 -50 -32 -42 -84 l6 -41 -55 -1 -55 -2 0 284 0 284 83 1 c45
1 170 5 277 9 107 3 304 7 438 8 l242 2 0 -197z m-494 -11 c5 -24 14 -31 55
-44 46 -14 50 -13 66 4 21 24 27 23 64 -10 29 -26 30 -30 18 -50 -11 -18 -11
-26 -2 -40 7 -9 22 -34 33 -54 16 -31 26 -38 50 -38 34 0 36 -2 45 -60 l6 -45
-40 -12 c-22 -7 -77 -13 -121 -13 l-80 0 0 43 c0 86 -71 158 -158 159 -19 0
-31 5 -30 12 5 21 -17 21 -26 0 -5 -11 -22 -26 -38 -33 -16 -7 -41 -32 -56
-55 -14 -22 -52 -72 -84 -109 -32 -38 -58 -72 -58 -78 0 -11 20 -13 20 -1 1
14 89 106 96 99 4 -3 -19 -34 -49 -68 -31 -34 -54 -66 -50 -72 3 -5 27 15 54
44 26 30 48 49 49 44 0 -6 -21 -34 -46 -63 -26 -29 -43 -56 -39 -60 4 -4 26
15 50 43 24 27 47 47 51 43 3 -4 -12 -28 -35 -54 -22 -26 -41 -51 -41 -55 0
-20 18 -6 54 41 21 27 42 47 47 44 5 -3 -9 -28 -32 -55 -23 -27 -38 -53 -34
-57 6 -6 16 4 66 66 10 13 23 21 29 17 6 -4 -6 -26 -31 -56 -23 -27 -44 -47
-47 -44 -3 3 -18 -7 -34 -22 l-28 -27 -37 36 c-36 36 -36 38 -18 57 17 20 17
22 -6 66 l-24 45 46 47 c25 27 69 77 99 113 30 36 74 86 99 112 31 33 42 51
35 58 -7 7 -45 -31 -121 -122 -61 -73 -122 -143 -136 -156 l-25 -23 -6 36 c-8
41 -4 51 24 58 24 6 26 -5 5 -23 -16 -13 -21 -34 -7 -28 8 3 38 37 176 201 27
31 42 57 35 57 -8 0 -48 -41 -89 -90 -41 -50 -75 -90 -75 -90 -1 0 -1 18 0 39
1 31 10 51 44 90 53 63 39 67 -19 5 -54 -59 -65 -49 -14 12 21 26 42 52 45 57
4 5 17 2 31 -7 23 -15 28 -14 76 6 40 17 53 28 57 49 7 29 19 36 73 38 28 1
33 -3 38 -27z m-8 -219 c13 -8 32 -28 42 -46 65 -106 -49 -229 -160 -172 -47
24 -70 62 -70 116 0 100 102 156 188 102z m510 -310 l-3 -148 -125 -2 c-69 -2
-160 -4 -202 -6 -61 -3 -78 -1 -83 11 -3 8 -4 16 -3 16 2 1 23 15 47 30 42 27
45 28 72 12 15 -9 32 -16 38 -16 12 0 101 129 101 147 0 6 -11 20 -25 30 -18
13 -23 24 -19 40 7 26 23 30 127 32 l78 1 -3 -147z m-238 126 c0 -6 -4 -19
-10 -29 -8 -15 -5 -23 16 -39 l25 -20 -28 -43 c-15 -24 -28 -45 -29 -46 -2 -2
-16 4 -33 14 -29 17 -30 17 -83 -18 -29 -20 -66 -42 -83 -50 -18 -8 -31 -22
-33 -36 -3 -20 -9 -22 -62 -22 l-58 0 -4 43 c-4 36 0 47 29 81 48 57 41 81 -7
26 -22 -25 -40 -48 -40 -52 0 -5 -7 -8 -15 -8 -22 0 -19 7 20 54 19 24 32 45
29 48 -3 3 17 8 44 9 l49 4 -25 -33 c-14 -18 -22 -36 -18 -40 9 -8 65 57 66
75 0 7 9 17 20 23 11 6 27 24 35 40 15 30 16 30 105 30 57 0 90 -4 90 -11z
m-674 -54 c17 -37 19 -47 8 -56 -25 -21 -15 -53 33 -101 26 -26 52 -48 59 -48
6 0 23 12 37 26 l26 26 46 -17 c35 -14 45 -23 45 -40 0 -22 -3 -22 -187 -29
-102 -3 -188 -5 -190 -2 -2 2 -7 64 -10 139 l-6 135 29 5 c80 12 88 9 110 -38z
m294 -30 c0 -18 -75 -102 -87 -98 -9 4 -1 19 28 54 36 43 59 60 59 44z"/>
<path d="M1362 2057 c-65 -65 -86 -97 -64 -97 4 0 41 34 82 75 49 50 71 78 64
85 -6 6 -34 -14 -82 -63z"/>
<path d="M565 2110 c-60 -4 -80 -9 -80 -19 0 -11 17 -14 80 -12 77 2 110 13
90 29 -6 4 -46 5 -90 2z"/>
<path d="M487 2043 c-17 -17 -3 -24 45 -21 69 4 79 28 11 28 -28 0 -53 -3 -56
-7z"/>
<path d="M1357 1974 c-14 -14 -7 -35 11 -32 9 2 17 10 17 17 0 16 -18 25 -28
15z"/>
<path d="M715 1815 c-25 -30 -43 -55 -38 -55 10 0 103 93 103 103 0 18 -22 2
-65 -48z"/>
<path d="M1395 1399 c-49 -59 -65 -89 -48 -89 9 0 123 135 123 145 0 20 -33
-4 -75 -56z"/>
<path d="M1431 1365 c-43 -49 -28 -67 17 -21 26 25 33 39 26 46 -8 8 -20 1
-43 -25z"/>
<path d="M1076 1512 c-17 -20 -43 -54 -59 -74 -16 -20 -27 -42 -25 -49 3 -8
32 21 66 65 34 43 60 82 57 87 -8 12 -6 14 -39 -29z"/>
<path d="M1096 1454 c-33 -44 -52 -80 -46 -82 6 -2 12 -2 14 -1 1 2 26 35 55
72 36 46 50 72 44 78 -7 7 -29 -15 -67 -67z"/>
<path d="M928 1343 c-22 -26 -40 -63 -30 -63 12 0 62 54 62 68 0 17 -14 15
-32 -5z"/>
<path d="M485 1450 c-10 -11 -15 -23 -12 -27 8 -7 47 25 47 39 0 14 -16 9 -35
-12z"/>
<path d="M502 1397 c-34 -35 -39 -47 -19 -46 15 0 60 56 55 69 -2 6 -18 -4
-36 -23z"/>
<path d="M520 1345 c-23 -24 -31 -38 -24 -45 7 -7 21 2 42 29 18 22 32 42 32
45 0 14 -19 3 -50 -29z"/>
<path d="M571 1313 c-27 -34 -9 -46 22 -14 15 15 18 24 10 32 -7 7 -17 3 -32
-18z"/>
<path d="M2596 1645 c-6 -18 13 -29 41 -23 28 5 22 33 -8 36 -17 2 -29 -3 -33
-13z"/>
<path d="M2037 1643 c-106 -3 -118 -6 -115 -21 4 -22 62 -25 358 -15 203 7
225 10 228 26 3 16 -10 17 -175 15 -98 -1 -231 -4 -296 -5z"/>
<path d="M1731 1631 c-29 -19 -4 -41 47 -41 53 0 78 15 61 37 -13 15 -87 17
-108 4z"/>
<path d="M1988 1543 c-61 -4 -68 -6 -68 -25 0 -20 3 -21 107 -15 58 4 139 7
180 7 66 0 73 2 73 20 0 19 -6 20 -112 18 -62 -1 -143 -3 -180 -5z"/>
<path d="M1720 1510 c0 -19 5 -21 57 -18 46 2 59 7 61 21 3 15 -5 17 -57 17
-55 0 -61 -2 -61 -20z"/>
<path d="M2405 1448 c-387 -10 -485 -17 -485 -33 0 -7 6 -15 14 -18 8 -3 133
-1 278 4 144 5 315 10 378 12 97 2 115 5 118 18 2 9 -3 18 -10 20 -7 3 -139 1
-293 -3z"/>
<path d="M1757 1413 c-29 -3 -37 -8 -35 -21 2 -13 16 -18 50 -20 58 -4 95 12
77 34 -11 14 -18 14 -92 7z"/>
<path d="M2031 1321 c-70 -4 -106 -10 -109 -18 -2 -7 2 -15 10 -18 7 -3 134
-2 283 2 245 7 270 10 273 26 3 16 -10 17 -175 15 -98 -1 -225 -4 -282 -7z"/>
<path d="M1733 1304 c-7 -3 -13 -12 -13 -19 0 -18 17 -22 78 -17 43 3 52 7 50
21 -2 12 -16 16 -53 18 -28 1 -56 0 -62 -3z"/>
<path d="M2443 1220 c-101 -3 -187 -10 -192 -15 -28 -28 8 -31 233 -23 126 4
231 10 234 13 2 2 2 11 -1 20 -5 11 -19 15 -49 13 -24 -1 -125 -4 -225 -8z"/>
<path d="M2088 1203 c-27 -7 -22 -32 8 -39 29 -8 49 7 41 30 -6 16 -16 18 -49
9z"/>
<path d="M965 1080 c-88 -4 -175 -8 -193 -9 -31 -1 -33 -3 -30 -33 l3 -33 180
3 c270 3 343 10 350 31 3 10 3 26 -1 35 -7 18 -18 18 -309 6z"/>
<path d="M1898 1074 c-9 -8 2 -637 11 -646 3 -4 110 -3 236 3 127 5 311 13
410 17 166 6 180 8 183 26 4 19 -3 19 -259 12 -145 -3 -326 -9 -401 -13 l-138
-6 -2 304 c-3 265 -5 304 -18 307 -9 1 -19 0 -22 -4z"/>
<path d="M2546 1041 c-55 -20 -101 -41 -103 -48 -2 -6 6 -17 19 -24 13 -6 25
-13 27 -15 2 -2 -36 -45 -84 -97 l-87 -93 -59 28 c-32 15 -63 28 -67 28 -13 0
-212 -229 -212 -243 0 -11 61 -57 76 -57 4 0 39 35 79 77 l72 77 72 -43 c63
-37 75 -41 91 -29 10 7 65 67 121 133 56 66 105 124 109 129 5 4 22 -2 39 -15
27 -20 33 -21 45 -8 12 11 12 31 4 114 -10 91 -20 127 -37 124 -3 -1 -51 -18
-105 -38z m98 -84 l7 -68 -27 18 c-30 19 -16 32 -187 -164 l-87 -101 -70 40
-69 40 -28 -20 c-16 -11 -50 -43 -76 -71 -43 -46 -67 -62 -67 -45 0 7 43 58
113 133 l51 54 62 -31 63 -31 110 121 c101 112 109 123 95 139 -14 16 -11 18
43 37 32 10 59 19 59 18 1 0 4 -32 8 -69z"/>
<path d="M485 1061 c-48 -6 -50 -7 -50 -36 l0 -30 82 -3 c98 -3 126 7 121 46
-3 25 -7 27 -53 28 -27 1 -72 -1 -100 -5z"/>
<path d="M1005 918 c-137 -5 -254 -13 -259 -18 -28 -28 18 -31 395 -20 211 7
388 15 393 20 33 32 -46 35 -529 18z"/>
<path d="M504 911 c-12 -5 -31 -22 -44 -38 -47 -60 -3 -163 71 -163 70 0 119
61 104 129 -12 55 -81 93 -131 72z m86 -77 c20 -52 -31 -100 -79 -75 -25 14
-38 58 -24 80 29 46 85 43 103 -5z"/>
<path d="M1727 894 c-4 -4 -7 -14 -7 -21 0 -11 13 -13 53 -11 38 2 52 7 52 18
0 11 -13 16 -45 18 -25 2 -49 0 -53 -4z"/>
<path d="M1355 800 c-13 -22 10 -30 84 -30 54 0 82 4 90 13 6 8 8 17 4 20 -10
11 -171 8 -178 -3z"/>
<path d="M826 791 c-50 -4 -81 -11 -84 -18 -2 -7 2 -15 10 -18 7 -2 116 -1
243 3 208 6 230 9 233 25 3 16 -9 17 -160 15 -90 -1 -199 -4 -242 -7z"/>
<path d="M1725 770 c-12 -19 6 -30 50 -30 40 0 64 17 48 34 -10 10 -91 7 -98
-4z"/>
<path d="M1180 680 c-11 -7 -12 -12 -3 -21 8 -8 62 -11 179 -10 92 1 171 4
176 7 4 3 8 12 8 20 0 12 -29 14 -172 14 -95 0 -180 -5 -188 -10z"/>
<path d="M788 673 c-25 -3 -38 -9 -38 -19 0 -12 19 -14 118 -12 96 2 117 6
117 18 0 12 -16 15 -80 16 -44 1 -97 -1 -117 -3z"/>
<path d="M1732 593 c3 -14 12 -17 43 -14 46 4 58 9 50 22 -4 5 -26 9 -51 9
-38 0 -45 -3 -42 -17z"/>
<path d="M463 570 c-13 -5 -23 -13 -23 -17 0 -15 37 -69 71 -102 l33 -34 48
53 c54 60 67 88 47 101 -18 11 -148 10 -176 -1z m127 -37 c0 -5 -10 -20 -23
-36 l-22 -28 -28 36 -28 35 51 0 c27 0 50 -3 50 -7z"/>
<path d="M955 570 c-110 -3 -201 -7 -202 -8 -8 -6 -2 -52 7 -57 5 -3 109 -3
231 1 181 6 222 10 227 22 8 22 -12 47 -39 48 -13 0 -114 -3 -224 -6z"/>
<path d="M1303 563 c-15 -6 -17 -30 -3 -35 5 -1 60 -1 122 2 97 4 113 7 116
23 3 15 -7 17 -110 16 -62 0 -119 -3 -125 -6z"/>
<path d="M1061 434 c-281 -12 -331 -19 -305 -43 5 -6 145 -4 349 4 187 8 361
14 388 15 40 0 47 3 47 20 0 19 -6 20 -92 19 -51 -1 -225 -8 -387 -15z"/>
<path d="M513 413 c-65 -3 -73 -6 -73 -23 0 -18 7 -20 93 -20 50 0 98 4 106 9
23 15 5 41 -26 39 -15 -1 -61 -4 -100 -5z"/>
<path d="M2780 305 c0 -9 9 -15 25 -15 16 0 25 6 25 15 0 9 -9 15 -25 15 -16
0 -25 -6 -25 -15z"/>
<path d="M270 292 c0 -11 7 -23 16 -26 11 -4 15 0 12 16 -4 28 -28 36 -28 10z"/>
</g>
</svg>
